<svg width="26" height="32" viewBox="0 0 26 32" fill="none" xmlns="http://www.w3.org/2000/svg">
<path fill-rule="evenodd" clip-rule="evenodd" d="M2.55622 9.88697C2.55622 5.14508 6.75522 0 13 0C19.2448 0 23.4438 5.14508 23.4438 9.88697C23.4438 11.1035 23.5911 11.9553 23.7923 12.6104C23.994 13.2675 24.2629 13.7724 24.5727 14.3172C24.6044 14.3729 24.6369 14.4297 24.67 14.4875C24.9526 14.981 25.2807 15.5538 25.5311 16.2423C25.8199 17.0364 26 17.9576 26 19.1541C26 19.1861 25.9987 19.218 25.9961 19.2499C25.8939 20.4871 25.544 21.5728 24.8784 22.4775C24.2157 23.3782 23.3004 24.0174 22.1966 24.4716C20.0399 25.3591 16.959 25.618 13 25.618C9.04282 25.618 5.96197 25.3633 3.80531 24.478C2.7012 24.0248 1.7853 23.386 1.12214 22.484C0.45621 21.5782 0.106409 20.4904 0.00394718 19.2499C0.00131693 19.218 0 19.1861 0 19.1541C0 17.9576 0.180066 17.0364 0.46886 16.2423C0.719276 15.5538 1.04736 14.981 1.32999 14.4875C1.36311 14.4297 1.39562 14.3729 1.4273 14.3172C1.73708 13.7724 2.00596 13.2675 2.20773 12.6104C2.40886 11.9553 2.55622 11.1035 2.55622 9.88697ZM13 2.21512C7.87441 2.21512 4.66433 6.41529 4.66433 9.88697C4.66433 11.2993 4.49216 12.3846 4.214 13.2905C3.93648 14.1943 3.5663 14.8742 3.23703 15.4533C3.20445 15.5106 3.17258 15.5664 3.14139 15.6211C2.84981 16.1319 2.61831 16.5375 2.43807 17.0331C2.25084 17.5479 2.11292 18.1858 2.10823 19.1056C2.18788 19.9927 2.42767 20.6364 2.79041 21.1298C3.16231 21.6356 3.72493 22.0669 4.57238 22.4147C6.31881 23.1316 9.03319 23.4029 13 23.4029C16.9664 23.4029 19.6814 23.1277 21.4278 22.409C22.2756 22.0601 22.8386 21.6282 23.2106 21.1226C23.5733 20.6297 23.8125 19.988 23.8918 19.1056C23.8871 18.1858 23.7492 17.5479 23.5619 17.0331C23.3817 16.5375 23.1502 16.1319 22.8586 15.6211C22.8274 15.5664 22.7955 15.5106 22.763 15.4533C22.4337 14.8742 22.0635 14.1943 21.786 13.2905C21.5078 12.3846 21.3357 11.2993 21.3357 9.88697C21.3357 6.41529 18.1256 2.21512 13 2.21512Z" fill="#130F26"/>
<path fill-rule="evenodd" clip-rule="evenodd" d="M8.80935 28.131C9.24236 27.7222 9.9088 27.7596 10.2979 28.2146C11.8105 29.9834 14.0714 29.9668 15.574 28.2136C15.9636 27.7591 16.63 27.7225 17.0626 28.1318C17.4952 28.5412 17.53 29.2415 17.1405 29.696C14.8087 32.4166 11.0882 32.453 8.7298 29.6951C8.34072 29.2401 8.37633 28.5398 8.80935 28.131Z" fill="#130F26"/>
</svg>
