<svg width="34" height="34" viewBox="0 0 34 34" fill="none" xmlns="http://www.w3.org/2000/svg">
<path fill-rule="evenodd" clip-rule="evenodd" d="M16.9997 2.33417C8.89889 2.33417 2.33301 8.90005 2.33301 17.0008C2.33301 25.1016 8.89889 31.6675 16.9997 31.6675C25.1005 31.6675 31.6663 25.1016 31.6663 17.0008C31.6663 8.90005 25.1005 2.33417 16.9997 2.33417ZM0.833008 17.0008C0.833008 8.07162 8.07046 0.834167 16.9997 0.834167C25.9289 0.834167 33.1663 8.07162 33.1663 17.0008C33.1663 25.93 25.9289 33.1675 16.9997 33.1675C8.07046 33.1675 0.833008 25.93 0.833008 17.0008Z" fill="#130F26"/>
<path fill-rule="evenodd" clip-rule="evenodd" d="M16.4357 9.32817C16.8499 9.32817 17.1857 9.66396 17.1857 10.0782V17.7306L23.1032 21.2607C23.459 21.4729 23.5753 21.9333 23.3631 22.2891C23.1509 22.6448 22.6905 22.7611 22.3348 22.5489L16.0514 18.8006C15.8246 18.6653 15.6857 18.4206 15.6857 18.1565V10.0782C15.6857 9.66396 16.0215 9.32817 16.4357 9.32817Z" fill="#130F26"/>
</svg>
