<svg width="363" height="406" fill="none" xmlns="http://www.w3.org/2000/svg"><g clip-path="url(#a)"><path d="M141.3 316.41c-20.2 50.82-14.43 85.15-14.43 85.15a273.47 273.47 0 0 0 58.1 4.3c24.66-.8 47.46-8.47 68.13-20.11.7-28.23-8.93-53.42-15.8-67.74-44.17 21.4-82.7 5.4-96-1.6Z" fill="#AB8DA8"/><path d="M147.23 302.73a243.64 243.64 0 0 0-5.9 13.68c13.27 7 51.84 23.02 95.97 1.6-3.77-7.84-6.73-12.4-6.73-12.4s-56.17-61.14-83.34-2.88Z" fill="#FEF9EF"/><path d="M191.1 405.5v-17.58l15.27-10.62-10.1 14.12L197.3 405l-6.2.5Z" fill="#543753"/><path d="M118.53 192.63s-1.53.56-1.8 16.11c-.26 15.55-1.43 46.48-1.43 46.48s-14.1-13.11-15.13-19.72c-1.04-6.6-.6-12.55-1.3-16.18-.7-3.64-.84-13.58-.54-15.45.3-1.87-4.43-2.17-5.73.6-1.3 2.77-1.73 11.98-2.4 12.31-.67.34-8.3 1.04-9.03 2.7-.74 1.67.56 4.7-.57 7.25-1.13 2.53.1 4.33 0 6.27-.1 1.93-.57 2.67.3 5.6.87 2.94 1.03 5.4 2.43 5.88l1.4.46 4.9 1.67s21 47.35 31.4 48.38c10.4 1.04 15.84-7.24 17.14-13.91 1.3-6.68 8.26-46.65 8.26-46.65l-27.9-41.8Z" fill="#FFEDE5"/><path d="m130.33 225.52 11.54 35.07 4.56-26.2-16.1-8.87ZM115.3 255.19s9.8 8.24 13.03 15.01c0 0-5.23-13.88-12.83-20.32l-.2 5.3ZM86.37 244.28s10.23-.27 11.06-.9c.84-.64.87-3.64.44-4.01 0 0 .83-4.37.06-5.5 0 0 .3-3.24-.03-5.14 0 0 1.7 9.74 1.5 11.27-.2 1.54.6 4.14-4 4.9-4.6.78-9.03-.63-9.03-.63Z" fill="#E0855C"/><path d="M97.93 233.93h-.06c-.17-.03-.3-.2-.27-.37.43-2.7-.27-7.94-.27-7.97v-.13c.3-1.17.94-4.47.07-5.47-.77-.9-8.17-1.14-12.67-1.07a.33.33 0 0 1-.33-.34c0-.2.13-.33.33-.33 2-.03 11.97-.1 13.17 1.3 1.2 1.4.27 5.3.1 6 .07.64.67 5.44.23 8.11 0 .17-.16.27-.3.27Z" fill="#472938"/><path d="M97.67 225.86s-.04 0 0 0l-10.74-.5a.33.33 0 0 1-.33-.34c0-.2.13-.33.33-.33l10.74.5c.2 0 .33.17.33.33 0 .2-.17.34-.33.34ZM97.83 239.7H87.27c-.2 0-.34-.13-.34-.33s.14-.33.34-.33h10.56c.2 0 .34.13.34.33s-.14.33-.34.33ZM98.03 232.43H85.9c-.2 0-.33-.13-.33-.33s.13-.34.33-.34h12.13c.2 0 .34.14.34.34s-.14.33-.34.33Z" fill="#472938"/><path d="m278.97 176.38 20.2-.77c.86-.04 1.6.63 1.63 1.5l1.57 41.7c.03.87-.64 1.6-1.5 1.64l-20.2.77c-.87.03-1.6-.63-1.64-1.5L277.47 178c-.04-.9.63-1.6 1.5-1.63Z" fill="#3B2645"/><path d="M280.6 219.85a.23.23 0 0 1-.23-.23l-1.57-41.71c0-.07.03-.13.07-.17.03-.03.1-.06.16-.06l20.2-.77c.14 0 .24.1.24.23l1.56 41.71c0 .13-.1.23-.23.23l-20.2.77Z" fill="#FEF9EF"/><path d="M216.33 171.2s21.2 2.14 25.14 19.36c3.93 17.21 11.2 58.12 11.2 58.12s15.46-24.8 16.7-28.73c1.23-3.94 5.23-17.25 5.1-21.79-.14-4.53 4.3-1.3 4.3 4.1l.66 17.9c.04.6.54 1.06 1.14 1.03h.03l20.47-1.54c.7-.03 1.2-.63 1.16-1.33v-.24s-1.46-3.03-1.03-4.44c.43-1.4 3.93-1.53 4.33-1.2.4.34 2.57 4.5 2.5 5.64-.06 1.14-2.6 4.67-4.26 5.2-1.67.54-18.27 4.55-21.67 9.68-3.4 5.14-18.27 50.15-30.33 53.62-12.07 3.47-23.84-29.26-26.6-38.83-2.77-9.58-8.84-76.55-8.84-76.55Z" fill="#FFEDE5"/><path d="M221.67 224.29c1.3 11.04 2.6 20.32 3.5 23.42a142.1 142.1 0 0 0 8.93 22.6l1.33-62.9-13.76 16.88Z" fill="#E0855C"/><path d="M301.67 200.57s7.23 3.7 7.1 5.27c-.14 1.57-1.5 4.37-2.9 4.23-1.4-.13-4.04-1.53-4.77-3.16-.73-1.64-1.1-6.88.57-6.34Z" fill="#FFEDE5"/><path d="M302.03 206s7.24 3.7 7.1 5.28c-.13 1.56-1.5 4.37-2.9 4.23-1.4-.13-4.03-1.53-4.76-3.17-.74-1.63-1.1-6.87.56-6.34ZM302.03 193.96s7.24 3.7 7.1 5.27c-.13 1.57-1.5 4.37-2.9 4.24-1.4-.13-4.03-1.54-4.76-3.17-.74-1.64-1.1-6.9.56-6.34Z" fill="#FFEDE5"/><path d="M246.13 261.93c-.06 0-.1 0-.16-.04-.17-.06-.24-.3-.14-.43l6.54-12.91c.06-.17.3-.24.43-.14.17.07.23.3.13.44l-6.53 12.9c-.03.1-.13.18-.27.18Z" fill="#472938"/><path d="M152.5 280.24c.03 10.85-5.27 22.46-5.27 22.46s36.7 20.62 83.3 2.87c0 0-5.7-14.68-4.96-30.03-37.67-7-73.07 4.7-73.07 4.7ZM118.53 192.63c-2.73 4.1 7.8 24.52 17.87 45.17 9.17-20.52 3.8-45.44.7-56.15-7.1 2.73-15.8 6.77-18.57 10.97Z" fill="#FFEDE5"/><path d="M225.57 275.57c.06-1.6.23-3.2.46-4.8l.47-3.1c-29.9-8.18-65.5 1.16-75.53 4.13.96 3.3 1.53 6.18 1.53 8.44 0 0 35.4-11.7 73.07-4.67Z" fill="#FEF9EF"/><path d="M136.4 238.9c-.13 0-.23-.06-.3-.2l-7.43-16.01c-.07-.17 0-.37.16-.44.17-.06.37 0 .44.17l7.43 16.02c.07.16 0 .36-.17.43-.03.03-.1.03-.13.03Z" fill="#472938"/><path d="M193.4 309.6a.93.93 0 1 0 0-1.86.93.93 0 0 0 0 1.87Z" fill="#E0855C"/><path d="M233.83 209.37v-1c0-.26 0-.5-.03-.76v-.24c0-.33-.03-.63-.03-.93v-.2c0-.24-.04-.5-.04-.74 0-.1 0-.2-.03-.3 0-.2-.03-.4-.03-.56l-.04-.34c0-.16-.03-.36-.06-.53 0-.1-.04-.2-.04-.34l-.06-.56c0-.1-.04-.17-.04-.27a6.56 6.56 0 0 0-.13-.8c-2.6-15.81-17-30.63-17-30.63s5.6 22.26 7.4 24.86c6.57 9.54 10.23 15.28 9.77 22.89l.1-1.17v-.3c.03-.3.03-.6.06-.87 0-.1 0-.23.04-.33 0-.27.03-.54.03-.84l.03-.33c0-.3.04-.57.04-.83v-.27c.03-.73.06-1.47.06-2.2v-2.41Z" fill="#FFEDE5"/><path d="M223.7 196.06c-1.8-2.6-7.37-24.86-7.37-24.86h-4.23l-64.87 6.94s-4.56 1.34-10.13 3.47c3.07 10.71 8.47 35.67-.7 56.16 6.03 12.41 11.87 24.89 14.53 34.03 10.04-3 45.64-12.31 75.54-4.13 1.96-12.62 5.76-32.7 7-48.72.46-7.6-3.2-13.35-9.77-22.89Z" fill="#AB8DA8"/><path d="M158.1 254.19c-1.6 0-3.27-.2-5.03-.64-.17-.03-.3-.23-.24-.4.04-.17.24-.3.4-.23 6.34 1.6 11.47-.24 16.87-2.14 5.13-1.83 10.43-3.7 17.23-2.94 13.74 1.54 36.1-2.16 36.34-2.2.2-.03.36.1.4.27.03.17-.1.37-.27.4-.23.03-22.7 3.77-36.5 2.24-6.63-.74-11.87 1.1-16.93 2.9-4.07 1.37-7.94 2.74-12.27 2.74Z" fill="#472938"/><path d="M209.37 82.25s17.4 1.73 12.16 24.9c-5.23 23.15-.06 22.11 4.47 34.36 4.53 12.24-19.17 4.14-19.17 4.14s12.07 18.08-52.06 10.27c-52.9-6.44-17.6-34.03-17.6-34.03s-15.9 2.1 3.13-14.72c13.4-11.84 20.53-55.38 69.07-24.92Z" fill="#3B2645"/><path d="M197.83 146.31s-5.36 18.85 2 22.36c5.67 2.7 12.27 2.53 12.27 2.53s-2.27 49.99-30.27 50.52c-28 .53-34.6-43.58-34.6-43.58s11.4-4 14.8-11.84c3.4-7.84 3.57-18.82 3.57-18.82l32.23-1.17Z" fill="#FFEDE5"/><path d="M211.28 132.06c2.86-4.95 2.8-10.33-.14-12.03-2.93-1.7-7.63.94-10.48 5.9-2.85 4.94-2.79 10.32.15 12.02 2.93 1.7 7.62-.94 10.47-5.89Z" fill="#E0855C"/><path d="M204.3 132.43a.3.3 0 0 1-.23-.1.32.32 0 0 1 0-.47l5.03-4.73a.32.32 0 0 1 .47 0c.13.13.13.33 0 .46l-5.04 4.74c-.06.1-.13.1-.23.1Z" fill="#472938"/><path d="M158.84 134.19c3.3-.78 4.9-5.92 3.59-11.48-1.32-5.56-5.05-9.43-8.35-8.65-3.3.78-4.9 5.92-3.59 11.48 1.31 5.55 5.05 9.43 8.35 8.65Z" fill="#FFEDE5"/><path d="M196.17 162.4c-1-6.75 1.66-16.12 1.66-16.12l-32.26 1.2s-.04 2.44-.44 5.84c0 .03 16.1 19.55 31.04 9.08Z" fill="#E0855C"/><path d="M157.97 127.36c-.1 0-.2-.07-.27-.17l-3.2-4.9c-.1-.17-.07-.37.1-.47.17-.1.37-.06.47.1l3.2 4.9c.1.17.06.37-.1.47-.07.07-.14.07-.2.07Z" fill="#472938"/><path d="M160.1 92.16s-11.47 61.96 15.47 68.4C202.5 167 212.1 109.21 211.4 97.2c-.7-12.01-47.3-15.65-51.3-5.04Z" fill="#FFEDE5"/><path d="M195.93 120.49c.87.16 1.44 1 1.3 1.87l-.16.96c-.17.87-1 1.44-1.87 1.3-.87-.16-1.43-1-1.3-1.86l.17-.97c.16-.87 1-1.47 1.86-1.3ZM170.83 117.69c.9 0 1.6.7 1.6 1.6v.96a1.6 1.6 0 1 1-3.2 0v-.96c0-.9.7-1.6 1.6-1.6ZM201.8 118.82s-1.2-1.8-4.67-2.4c-3.46-.6-4.56-.4-4.6-1.5-.03-1.1 7.74-2.8 9.27 3.9ZM165.8 114.25s1.73-1.3 5.2-.74c3.47.6 4.43 1.14 4.83.1.4-1.03-6.36-5.2-10.03.64Z" fill="#472938"/><path d="m172.4 137.87 14.4 1.64s-2.23 9.74-8.6 8.6c-6.33-1.1-5.8-10.24-5.8-10.24Z" fill="#fff"/><path d="M181.93 135.47c-1 0-2.1-.27-3.1-.73-.16-.07-.23-.27-.16-.44.06-.17.26-.23.43-.17 1.47.7 3.1.87 4.2.44.47-.17.77-.44.9-.74.43-1.03.27-4.23.07-7.94l-.07-1.3c-.37-6.84 3.73-8.14 3.9-8.2a.3.3 0 0 1 .4.23.3.3 0 0 1-.23.4c-.17.03-3.77 1.23-3.44 7.54l.07 1.3c.2 3.94.4 7.07-.13 8.24-.2.47-.64.87-1.27 1.1-.4.2-.97.27-1.57.27Z" fill="#472938"/><path d="M206.83 126.63s2.17-16.72-5.03-25.86c0 0-6.1 11.54-16.1 7.54 0 0-13.73 11.91-27.73 8.44-14-3.47-9.04-36.23 11.26-37.64 20.3-1.4 61.6 6.78 37.6 47.52Z" fill="#3B2645"/></g><defs><clipPath id="a"><path fill="#fff" d="M0 0h375v406H0z"/></clipPath></defs></svg>