<svg width="414" height="247" viewBox="0 0 414 247" fill="none" xmlns="http://www.w3.org/2000/svg">
<g clip-path="url(#clip0_312_385)">
<path d="M145.577 197.433C147.866 191.443 148.197 186.005 146.318 185.287C144.438 184.568 141.059 188.841 138.771 194.83C136.482 200.82 136.151 206.258 138.03 206.976C139.91 207.695 143.289 203.422 145.577 197.433Z" fill="#2F2E41"/>
<path d="M143.631 217.385C145.685 204.727 137.092 192.8 124.438 190.746C111.784 188.692 99.8611 197.288 97.8077 209.946C95.7542 222.605 104.348 234.532 117.001 236.586C129.655 238.64 141.578 230.044 143.631 217.385Z" fill="#2F2E41"/>
<path d="M117.194 231.889H110.142V244.528H117.194V231.889Z" fill="#2F2E41"/>
<path d="M131.297 231.889H124.245V244.528H131.297V231.889Z" fill="#2F2E41"/>
<path d="M116.019 246.879C119.264 246.879 121.895 245.892 121.895 244.675C121.895 243.457 119.264 242.47 116.019 242.47C112.773 242.47 110.142 243.457 110.142 244.675C110.142 245.892 112.773 246.879 116.019 246.879Z" fill="#2F2E41"/>
<path d="M130.122 246.585C133.367 246.585 135.998 245.598 135.998 244.381C135.998 243.163 133.367 242.176 130.122 242.176C126.876 242.176 124.245 243.163 124.245 244.381C124.245 245.598 126.876 246.585 130.122 246.585Z" fill="#2F2E41"/>
<path d="M121.54 215.72C125.92 215.591 129.366 211.935 129.237 207.554C129.108 203.173 125.454 199.726 121.074 199.855C116.695 199.984 113.249 203.64 113.378 208.021C113.506 212.402 117.161 215.849 121.54 215.72Z" fill="white"/>
<path d="M121.307 210.433C122.768 210.433 123.952 209.248 123.952 207.787C123.952 206.326 122.768 205.142 121.307 205.142C119.847 205.142 118.663 206.326 118.663 207.787C118.663 209.248 119.847 210.433 121.307 210.433Z" fill="#3F3D56"/>
<path d="M98.2035 192.072C96.3293 183.675 102.32 175.191 111.585 173.121C120.85 171.052 129.88 176.181 131.754 184.578C133.628 192.974 127.488 196.071 118.223 198.141C108.959 200.21 100.078 200.469 98.2035 192.072Z" fill="#E6E6E6"/>
<path d="M105.062 207.867C105.924 206.048 101.928 202.346 96.1369 199.599C90.3455 196.851 84.9517 196.098 84.0894 197.917C83.2271 199.735 87.2229 203.437 93.0143 206.185C98.8056 208.933 104.199 209.686 105.062 207.867Z" fill="#2F2E41"/>
<path d="M109.318 222.043C109.318 224.315 115.168 228.803 121.658 228.803C128.149 228.803 134.235 222.405 134.235 220.132C134.235 217.859 128.149 220.573 121.658 220.573C115.168 220.573 109.318 219.77 109.318 222.043Z" fill="white"/>
<path d="M283.965 150.565L258.752 175.458L201.773 231.702L200.62 232.84L194.196 239.18L180.727 225.869L179.541 224.699L154.916 200.367H154.911L147.02 192.565L142.358 187.955L128.474 174.239L126.599 172.385L104.469 150.517C100.073 146.12 96.3465 141.101 93.4098 135.62C93.1404 135.129 92.8869 134.633 92.639 134.137C87.3911 123.67 85.1456 111.953 86.152 100.287C87.1584 88.6206 91.3773 77.4615 98.3402 68.0486C105.303 58.6358 114.738 51.3376 125.596 46.9642C136.455 42.5909 148.313 41.3137 159.853 43.2742H159.858C160.063 43.3066 160.263 43.3389 160.467 43.3821C162.632 43.7642 164.775 44.2628 166.886 44.8755C172.411 46.4731 177.691 48.8185 182.581 51.8467C183.093 52.1648 183.6 52.4883 184.101 52.8172C187.685 55.1864 191.02 57.9122 194.055 60.953L194.244 60.7643L194.433 60.953C196.271 59.1141 198.221 57.3892 200.27 55.7879C200.717 55.4375 201.17 55.0924 201.622 54.7582C208.554 49.6456 216.455 46.0017 224.843 44.0493C233.231 42.097 241.928 41.8773 250.404 43.4036C252.571 43.7856 254.716 44.286 256.828 44.9025C257.534 45.102 258.235 45.3177 258.93 45.5495C259.491 45.7328 260.051 45.9215 260.606 46.1263C265.228 47.7791 269.64 49.9687 273.752 52.6501C274.652 53.2377 275.539 53.8524 276.414 54.494C283.82 59.8795 289.971 66.8068 294.443 74.7989C298.916 82.791 301.604 91.6579 302.321 100.789C303.039 109.92 301.77 119.098 298.601 127.691C295.432 136.284 290.438 144.088 283.965 150.565Z" fill="#FFB6B6"/>
<path opacity="0.15" d="M258.752 175.458L201.773 231.702L200.62 232.84L194.196 239.18L180.727 225.869L179.541 224.699L154.916 200.367C158.872 199.445 164.951 200.712 167.177 201.812C172.454 204.416 176.793 208.691 182.15 211.128C186.934 213.289 192.278 213.879 197.419 212.816C207.023 210.799 214.455 203.37 221.009 196.059C227.562 188.743 234.262 180.893 243.473 177.501C248.329 175.711 253.546 175.307 258.752 175.458Z" fill="black"/>
<path d="M300.177 61.9937C292.336 54.1281 282.576 48.45 271.865 45.5226C271.154 45.3231 270.448 45.1452 269.731 44.9781C266.649 44.2415 263.516 43.7386 260.358 43.4739C259.809 43.4199 259.259 43.3822 258.704 43.3552C255.934 43.18 253.156 43.1908 250.388 43.3876C235.225 44.4026 220.921 50.7977 210.052 61.4222L209.858 61.2281L209.664 61.4222C202.562 54.4902 193.945 49.307 184.494 46.2828C183.961 46.1103 183.422 45.9432 182.883 45.7868C175.604 43.675 168.011 42.8629 160.451 43.3876C160.241 43.3984 160.031 43.4145 159.826 43.4361C145.964 44.4993 132.829 50.0656 122.422 59.2872C121.441 60.1498 120.476 61.0556 119.539 61.9937C110.728 70.8234 104.679 82.0285 102.129 94.2406C99.5795 106.453 100.64 119.143 105.181 130.762C105.369 131.269 105.574 131.771 105.79 132.272C108.997 139.923 113.667 146.873 119.539 152.733L140.515 173.447L142.164 175.081L187.555 219.9L188.725 221.059L200.647 232.835L209.858 241.93L300.177 152.727C312.187 140.686 318.933 124.371 318.933 107.361C318.933 90.3504 312.187 74.0348 300.177 61.9937ZM299.04 151.579L209.858 239.655L201.8 231.697L190.132 220.175L188.962 219.021L144.455 175.064L142.832 173.463L120.681 151.584C114.995 145.911 110.463 139.187 107.337 131.787C107.121 131.285 106.916 130.784 106.728 130.283C102.272 118.946 101.219 106.555 103.697 94.6286C106.176 82.7021 112.078 71.7578 120.681 63.1367C121.684 62.1339 122.71 61.1742 123.759 60.2576H123.764C133.776 51.4928 146.335 46.1714 159.594 45.0751C161.357 44.9242 163.121 44.8487 164.887 44.8487C165.55 44.8487 166.207 44.8595 166.87 44.881C172.286 45.0478 177.658 45.9178 182.85 47.469C183.384 47.6253 183.917 47.7925 184.446 47.9704C190.063 49.8018 195.386 52.4329 200.253 55.7827C203.422 57.956 206.383 60.4179 209.098 63.1367L209.669 63.7082L209.858 63.5195L210.046 63.7082L210.618 63.1367C216.656 57.0896 223.872 52.3487 231.819 49.2083C239.766 46.0679 248.273 44.595 256.812 44.881C257.496 44.9026 258.181 44.9349 258.865 44.9835C259.415 45.0158 259.965 45.0536 260.509 45.1075C263.984 45.4192 267.425 46.0234 270.798 46.9136C271.52 47.097 272.237 47.2964 272.948 47.5175C283.289 50.6457 292.642 56.4018 300.096 64.2243C307.55 72.0468 312.849 81.6685 315.478 92.1507C318.106 102.633 317.973 113.618 315.092 124.033C312.211 134.449 306.68 143.939 299.04 151.579Z" fill="#3F3D56"/>
<path opacity="0.15" d="M173.812 47.3232C170.352 50.0567 166.638 52.58 164.391 56.3163C162.736 59.0767 162.019 62.2847 161.486 65.4549C160.451 71.6228 160.009 77.9416 157.983 83.8561C155.961 89.7706 152.016 95.4209 146.169 97.626C142.541 98.9901 138.542 98.9146 134.678 98.6504C125.144 98.0034 115.545 96.2943 106.965 92.0943C102.168 89.7436 97.5165 86.5734 92.1864 86.223C91.1016 86.1532 90.0124 86.2129 88.9418 86.4009C93.5927 71.8777 103.325 59.5204 116.351 51.5981C129.377 43.6758 144.823 40.7202 159.853 43.2742H159.858C160.063 43.3066 160.263 43.3389 160.467 43.382C162.632 43.7642 164.775 44.2628 166.886 44.8755C169.24 45.5567 171.553 46.3739 173.812 47.3232Z" fill="black"/>
<path d="M21.7625 218.266C24.2728 219.149 26.9681 219.37 29.5887 218.908C32.2092 218.447 34.6668 217.318 36.7245 215.63C41.965 211.23 43.608 203.981 44.9449 197.269L48.8992 177.415L40.6205 183.117C34.667 187.218 28.5793 191.45 24.4571 197.39C20.3348 203.33 18.5355 211.439 21.8476 217.866L21.7625 218.266Z" fill="#E6E6E6"/>
<path d="M22.4701 242.303C21.6322 236.198 20.7706 230.014 21.3584 223.843C21.8804 218.362 23.5518 213.009 26.9546 208.62C28.7608 206.295 30.9586 204.303 33.4493 202.733C34.0987 202.323 34.6965 203.352 34.0498 203.761C29.7404 206.485 26.4071 210.509 24.5307 215.25C22.4583 220.523 22.1255 226.272 22.4826 231.873C22.6986 235.261 23.1563 238.626 23.6176 241.987C23.6539 242.139 23.6313 242.299 23.5541 242.435C23.477 242.571 23.3511 242.672 23.202 242.719C23.0499 242.76 22.8877 242.739 22.7507 242.661C22.6137 242.584 22.5129 242.455 22.4701 242.303H22.4701Z" fill="#F2F2F2"/>
<path d="M30.5408 231.499C31.6174 233.136 33.0973 234.468 34.8379 235.367C36.5785 236.266 38.5212 236.701 40.4787 236.63C45.5094 236.391 49.7034 232.879 53.4789 229.544L64.6458 219.681L57.2552 219.328C51.9402 219.073 46.4882 218.836 41.4259 220.475C36.3636 222.115 31.6949 226.061 30.7693 231.303L30.5408 231.499Z" fill="#E6E6E6"/>
<path d="M20.1021 245.813C24.1351 238.674 28.8131 230.741 37.1718 228.205C39.4959 227.502 41.9329 227.25 44.3515 227.463C45.1138 227.529 44.9235 228.704 44.1626 228.639C40.1084 228.302 36.0621 229.373 32.7048 231.671C29.4741 233.871 26.9587 236.929 24.8297 240.172C23.5256 242.159 22.3575 244.23 21.1891 246.298C20.8157 246.959 19.7244 246.482 20.1021 245.813H20.1021Z" fill="#F2F2F2"/>
<path d="M136.737 64.2228C149.557 64.2228 159.949 53.8269 159.949 41.003C159.949 28.1791 149.557 17.7832 136.737 17.7832C123.918 17.7832 113.526 28.1791 113.526 41.003C113.526 53.8269 123.918 64.2228 136.737 64.2228Z" fill="#2F2E41"/>
<path d="M133.211 59.2261H126.16V71.8647H133.211V59.2261Z" fill="#2F2E41"/>
<path d="M147.315 59.2261H140.263V71.8647H147.315V59.2261Z" fill="#2F2E41"/>
<path d="M132.036 74.216C135.281 74.216 137.912 73.229 137.912 72.0116C137.912 70.7941 135.281 69.8071 132.036 69.8071C128.791 69.8071 126.16 70.7941 126.16 72.0116C126.16 73.229 128.791 74.216 132.036 74.216Z" fill="#2F2E41"/>
<path d="M146.139 73.922C149.385 73.922 152.016 72.9351 152.016 71.7176C152.016 70.5001 149.385 69.5132 146.139 69.5132C142.894 69.5132 140.263 70.5001 140.263 71.7176C140.263 72.9351 142.894 73.922 146.139 73.922Z" fill="#2F2E41"/>
<path d="M137.325 43.0603C141.706 43.0603 145.258 39.5072 145.258 35.1244C145.258 30.7415 141.706 27.1885 137.325 27.1885C132.943 27.1885 129.392 30.7415 129.392 35.1244C129.392 39.5072 132.943 43.0603 137.325 43.0603Z" fill="white"/>
<path d="M141.894 38.6181C142.923 37.5896 142.917 35.9158 141.882 34.8795C140.847 33.8433 139.173 33.837 138.145 34.8655C137.116 35.894 137.122 37.5678 138.157 38.6041C139.193 39.6404 140.866 39.6466 141.894 38.6181Z" fill="#3F3D56"/>
<path d="M114.221 19.4091C112.347 11.0125 118.338 2.52809 127.603 0.458618C136.868 -1.61085 145.897 3.51836 147.772 11.915C149.646 20.3116 143.506 23.4085 134.241 25.4779C124.976 27.5473 116.095 27.8058 114.221 19.4091Z" fill="#E6E6E6"/>
<path d="M323.39 199.211C324.942 197.931 322.895 192.882 318.817 187.936C314.738 182.989 310.174 180.017 308.622 181.298C307.069 182.578 309.117 187.627 313.195 192.573C317.273 197.52 321.837 200.492 323.39 199.211Z" fill="#2F2E41"/>
<path d="M339.931 236.349C352.584 234.295 361.178 222.368 359.124 209.71C357.071 197.051 345.148 188.455 332.494 190.509C319.84 192.563 311.247 204.49 313.3 217.149C315.354 229.807 327.277 238.403 339.931 236.349Z" fill="#2F2E41"/>
<path d="M346.79 231.652H339.738V244.291H346.79V231.652Z" fill="#2F2E41"/>
<path d="M332.687 231.652H325.635V244.291H332.687V231.652Z" fill="#2F2E41"/>
<path d="M340.913 246.642C344.159 246.642 346.79 245.655 346.79 244.438C346.79 243.22 344.159 242.233 340.913 242.233C337.668 242.233 335.037 243.22 335.037 244.438C335.037 245.655 337.668 246.642 340.913 246.642Z" fill="#2F2E41"/>
<path d="M326.81 246.348C330.056 246.348 332.687 245.361 332.687 244.144C332.687 242.926 330.056 241.939 326.81 241.939C323.565 241.939 320.934 242.926 320.934 244.144C320.934 245.361 323.565 246.348 326.81 246.348Z" fill="#2F2E41"/>
<path d="M344.339 201.04C337.021 194.991 332.954 189.445 338.432 182.813C343.911 176.181 354.284 175.708 361.602 181.757C368.92 187.806 370.411 198.086 364.932 204.718C359.454 211.35 351.657 207.089 344.339 201.04Z" fill="#FFB6B6"/>
<path d="M328.42 209.312C332.8 209.184 336.245 205.528 336.117 201.147C335.988 196.766 332.334 193.319 327.954 193.448C323.575 193.576 320.129 197.232 320.257 201.613C320.386 205.994 324.041 209.441 328.42 209.312Z" fill="white"/>
<path d="M325.399 202.06C326.859 202.06 328.043 200.876 328.043 199.415C328.043 197.954 326.859 196.769 325.399 196.769C323.938 196.769 322.755 197.954 322.755 199.415C322.755 200.876 323.938 202.06 325.399 202.06Z" fill="#3F3D56"/>
<path d="M316.196 207.916C314.59 209.523 313.454 214.733 315.714 216.994C317.973 219.254 324.614 216.849 326.221 215.242C327.827 213.635 323.79 213.435 321.531 211.174C319.271 208.914 317.803 206.309 316.196 207.916Z" fill="white"/>
<path d="M358.246 244.48C360.125 243.762 359.794 238.324 357.505 232.334C355.217 226.345 351.838 222.072 349.958 222.791C348.079 223.509 348.41 228.947 350.699 234.937C352.987 240.926 356.366 245.199 358.246 244.48Z" fill="#2F2E41"/>
<path d="M472.461 247H-24.461C-24.604 247 -24.7411 246.943 -24.8421 246.842C-24.9432 246.741 -25 246.604 -25 246.461C-25 246.318 -24.9432 246.181 -24.8421 246.08C-24.7411 245.978 -24.604 245.922 -24.461 245.922H472.461C472.604 245.922 472.741 245.978 472.842 246.08C472.943 246.181 473 246.318 473 246.461C473 246.604 472.943 246.741 472.842 246.842C472.741 246.943 472.604 247 472.461 247Z" fill="#CCCCCC"/>
</g>
<defs>
<clipPath id="clip0_312_385">
<rect width="498" height="247" fill="white" transform="translate(-25)"/>
</clipPath>
</defs>
</svg>
