<svg width="30" height="31" viewBox="0 0 30 31" fill="none" xmlns="http://www.w3.org/2000/svg">
<path fill-rule="evenodd" clip-rule="evenodd" d="M12.0494 1.4018C13.9694 -0.120016 16.6969 -0.120016 18.6168 1.4018L18.6183 1.40301L28.2094 9.05185C29.2362 9.83875 29.8468 11.048 29.8645 12.3379L29.8646 12.3469L29.8646 25.0694C29.8646 28.2072 27.297 30.7396 24.1437 30.7396H21.3378L21.3225 30.7394C19.9968 30.7087 18.9275 29.6338 18.9278 28.3055C18.9278 28.3055 18.9278 28.3056 18.9278 28.3055V23.8193C18.9278 23.045 18.292 22.4061 17.4937 22.4061H13.2873C12.4937 22.4123 11.8647 23.0492 11.8647 23.8193V28.2916C11.8647 28.3689 11.8513 28.443 11.8268 28.5119C11.7145 29.7657 10.6522 30.7396 9.37057 30.7396H6.56466C3.41133 30.7396 0.84375 28.2072 0.84375 25.0694V12.3543C0.856513 11.0624 1.46826 9.85033 2.49904 9.06562L12.0494 1.4018ZM10.5522 28.2916V23.8193C10.5522 22.3149 11.7769 21.1036 13.2804 21.0936L13.2848 21.0936L17.4937 21.0936C19.0044 21.0936 20.2403 22.3077 20.2403 23.8193V28.3055C20.2402 28.9066 20.7246 29.4091 21.3462 29.4271H24.1437C26.5846 29.4271 28.5521 27.4699 28.5521 25.0694V12.3516C28.5386 11.4667 28.1184 10.6338 27.4071 10.0906L27.3962 10.0821L17.8015 2.43037C17.8013 2.43015 17.801 2.42992 17.8007 2.4297C16.3589 1.28752 14.3082 1.28735 12.8662 2.4292C12.8657 2.42959 12.8652 2.42998 12.8647 2.43037L3.31368 10.0947L3.29929 10.106C2.58615 10.6463 2.16594 11.4796 2.15625 12.3642V25.0694C2.15625 27.4699 4.12373 29.4271 6.56466 29.4271H9.37057C10.0139 29.4271 10.5241 28.9125 10.5241 28.2916H10.5522Z" fill="#130F26"/>
</svg>
