<svg width="414" height="249" viewBox="0 0 414 249" fill="none" xmlns="http://www.w3.org/2000/svg">
<g clip-path="url(#clip0_312_615)">
<path d="M48.6607 246.713C32.6401 242.544 18.4835 233.116 8.46001 219.941C-1.56348 206.766 -6.8733 190.608 -6.61828 174.055C-6.55474 169.931 -6.12112 165.721 -4.38749 161.978C-2.65386 158.236 0.566342 154.999 4.59444 154.112C8.99052 153.144 13.6293 155.123 16.9055 158.209C20.1816 161.296 22.3297 165.369 24.306 169.414C36.21 193.773 45.2544 219.911 48.6406 246.812L48.6607 246.713Z" fill="#F2F2F2"/>
<path d="M2.60009 154.925L10.9431 173.881L19.2861 192.837C21.9283 198.84 24.5655 204.846 27.2966 210.81C30.0036 216.721 32.8035 222.592 35.7903 228.367C38.7729 234.135 41.9429 239.808 45.3838 245.316C45.8122 246.002 46.2449 246.685 46.6819 247.365C46.9842 247.837 47.7401 247.399 47.4355 246.925C43.9287 241.458 40.6974 235.819 37.6667 230.076C34.6327 224.327 31.7971 218.475 29.0661 212.576C26.3206 206.646 23.6807 200.667 21.0477 194.686C18.2763 188.391 15.5054 182.095 12.735 175.799L4.39201 156.843L3.35378 154.484C3.128 153.971 2.3757 154.415 2.60009 154.925V154.925Z" fill="white"/>
<path d="M45.1804 246.845C35.7372 249.005 25.8421 247.932 17.0814 243.798C8.32073 239.664 1.20175 232.708 -3.13434 224.046C-4.2147 221.887 -5.12628 219.584 -5.23654 217.173C-5.34681 214.762 -4.54879 212.212 -2.69687 210.664C-0.675764 208.975 2.26671 208.75 4.80098 209.468C7.33524 210.186 9.54999 211.721 11.6679 213.287C24.4244 222.721 36.1764 233.849 45.1965 246.902L45.1804 246.845Z" fill="#F2F2F2"/>
<path d="M-3.51282 211.625L5.93612 219.214L15.3851 226.803C18.3776 229.207 21.3682 231.613 24.396 233.972C27.3973 236.31 30.4358 238.602 33.5457 240.794C36.6512 242.984 39.8286 245.073 43.1018 247.004C43.5095 247.244 43.9186 247.482 44.3291 247.717C44.6133 247.881 44.8877 247.45 44.6015 247.285C41.305 245.394 38.1051 243.339 34.9812 241.175C31.8539 239.009 28.8018 236.736 25.7915 234.411C22.7651 232.073 19.7806 229.682 16.799 227.288C13.6606 224.767 10.5224 222.247 7.38438 219.726L-2.06458 212.137L-3.24045 211.192C-3.49616 210.987 -3.76696 211.42 -3.51282 211.625Z" fill="white"/>
<path d="M341.439 246.239C363.781 240.424 383.523 227.276 397.501 208.904C411.479 190.531 418.884 167.997 418.528 144.915C418.439 139.163 417.835 133.292 415.417 128.072C413 122.853 408.509 118.339 402.892 117.103C396.761 115.753 390.292 118.512 385.723 122.817C381.155 127.122 378.159 132.801 375.403 138.441C358.802 172.412 346.19 208.862 341.467 246.376L341.439 246.239Z" fill="#F2F2F2"/>
<path d="M405.673 118.236L394.038 144.671L382.403 171.106C378.719 179.478 375.041 187.853 371.233 196.17C367.457 204.414 363.553 212.6 359.388 220.655C355.228 228.697 350.808 236.609 346.009 244.29C345.412 245.246 344.808 246.199 344.199 247.148C343.777 247.805 342.723 247.195 343.148 246.533C348.038 238.91 352.545 231.047 356.771 223.037C361.002 215.02 364.956 206.859 368.765 198.633C372.594 190.363 376.275 182.026 379.947 173.685C383.812 164.906 387.676 156.126 391.539 147.346L403.174 120.911L404.622 117.622C404.937 116.906 405.986 117.525 405.673 118.236Z" fill="white"/>
<path d="M346.293 246.422C359.462 249.435 373.261 247.938 385.478 242.173C397.695 236.408 407.623 226.708 413.67 214.628C415.176 211.618 416.447 208.406 416.601 205.044C416.755 201.681 415.642 198.125 413.06 195.967C410.241 193.611 406.138 193.297 402.604 194.299C399.069 195.3 395.981 197.441 393.027 199.625C375.238 212.78 358.849 228.3 346.27 246.501L346.293 246.422Z" fill="#F2F2F2"/>
<path d="M414.198 197.306L401.021 207.89L387.844 218.473C383.671 221.825 379.5 225.181 375.278 228.47C371.092 231.731 366.855 234.928 362.518 237.985C358.187 241.038 353.756 243.952 349.192 246.644C348.623 246.979 348.053 247.311 347.48 247.639C347.084 247.867 346.701 247.265 347.1 247.036C351.697 244.399 356.16 241.533 360.516 238.515C364.877 235.495 369.134 232.326 373.332 229.083C377.552 225.823 381.714 222.488 385.872 219.149C390.249 215.634 394.625 212.119 399.001 208.604L412.178 198.02L413.818 196.703C414.174 196.417 414.552 197.021 414.198 197.306Z" fill="white"/>
<path d="M78.5529 76.5546V76.5598L74.2059 80.1929L44.3127 86.8334C43.3927 87.2055 42.555 87.7551 41.8475 88.4508C41.1399 89.1466 40.5763 89.9749 40.1888 90.8885C39.4064 92.7336 39.3889 94.8139 40.1402 96.6719C40.5122 97.5919 41.0618 98.4295 41.7576 99.1371C42.4534 99.8447 43.2817 100.408 44.1953 100.796C46.0403 101.578 48.1207 101.596 49.9786 100.844L69.0194 97.6388C70.0741 97.4637 71.1156 97.2163 72.1364 96.8986C72.5378 96.7787 72.9341 96.6432 73.325 96.5025C75.0173 89.1285 77.3939 81.9285 80.4241 74.9961L78.5529 76.5546Z" fill="#2F2E41"/>
<path d="M326.84 94.9023L322.697 94.8762L320.481 94.8658L307.789 72.6766C307.896 72.4445 307.988 72.206 308.065 71.9625C309.478 67.605 305.751 64.6078 302.201 64.6704C301.798 64.67 301.395 64.7172 301.003 64.8111C307.995 77.4641 312.684 91.2583 314.852 105.551C315.212 105.653 315.58 105.726 315.952 105.77C317.888 105.945 319.838 105.878 321.758 105.572C324.344 105.244 326.788 104.78 328.092 104.879L326.84 94.9023Z" fill="#A0616A"/>
<path d="M340.502 95.3243L325.272 93.2081C324.714 93.1311 324.147 93.2572 323.674 93.5634C323.201 93.8696 322.854 94.3354 322.697 94.876C322.664 94.9853 322.64 95.0968 322.624 95.2096L321.404 103.982C321.322 104.597 321.485 105.22 321.859 105.716C322.232 106.211 322.786 106.54 323.4 106.63L338.631 108.746C340.411 108.994 342.216 108.525 343.65 107.442C345.084 106.359 346.029 104.751 346.277 102.971C346.526 101.191 346.056 99.3854 344.973 97.9514C343.89 96.5174 342.282 95.5724 340.502 95.3243V95.3243Z" fill="#CCEEEF"/>
<path d="M315.952 105.77C313.845 91.3625 309.189 77.4453 302.201 64.6704C290.969 44.131 274.16 27.1842 253.714 15.7838C233.267 4.38337 210.015 -1.00641 186.637 0.235813C163.26 1.47803 140.71 9.30167 121.587 22.8047C102.463 36.3078 87.5455 54.9405 78.553 76.5546V76.5599C75.8259 83.1397 73.6789 89.9451 72.1365 96.8986C70.1591 105.815 69.1646 114.922 69.1707 124.055C69.1707 156.957 82.2407 188.511 105.506 211.775C128.77 235.04 160.324 248.11 193.226 248.11C226.127 248.11 257.681 235.04 280.946 211.775C304.211 188.511 317.281 156.957 317.281 124.055C317.283 117.936 316.839 111.825 315.952 105.77ZM193.226 247.068C125.397 247.068 70.2131 191.884 70.2131 124.055C70.1936 107.173 73.6703 90.4689 80.4241 74.9961C99.4077 31.5091 142.827 1.04261 193.226 1.04261C239.59 1.04261 280.044 26.8284 301.003 64.8111C307.995 77.4641 312.684 91.2583 314.852 105.551C315.776 111.676 316.24 117.861 316.238 124.055C316.238 191.884 261.055 247.068 193.226 247.068Z" fill="#3F3D56"/>
<path d="M152.96 111.545C146.924 111.544 141.076 109.448 136.414 105.614C131.752 101.781 128.565 96.4476 127.398 90.5256C126.231 84.6037 127.156 78.4602 130.015 73.1445C132.874 67.8287 137.49 63.6704 143.074 61.3795C148.658 59.0886 154.865 58.8074 160.633 60.5838C166.402 62.3601 171.375 66.084 174.703 71.1193C178.031 76.1547 179.508 82.1893 178.881 88.1925C178.255 94.1957 175.563 99.7953 171.267 104.035C166.398 108.861 159.816 111.562 152.96 111.545ZM152.96 60.4637C148.011 60.4634 143.173 61.9306 139.058 64.6798C134.943 67.4291 131.736 71.3369 129.842 75.909C127.948 80.4811 127.452 85.5122 128.418 90.366C129.383 95.2199 131.766 99.6784 135.265 103.178C138.765 106.677 143.223 109.06 148.077 110.026C152.931 110.991 157.962 110.495 162.534 108.601C167.106 106.707 171.014 103.5 173.763 99.385C176.513 95.27 177.98 90.4322 177.979 85.4832C177.972 78.85 175.334 72.4905 170.643 67.8001C165.953 63.1096 159.593 60.4712 152.96 60.4637Z" fill="#3F3D56"/>
<path d="M233.231 111.545C228.076 111.545 223.038 110.017 218.752 107.153C214.466 104.289 211.125 100.219 209.153 95.4569C207.18 90.6947 206.664 85.4545 207.67 80.399C208.675 75.3434 211.158 70.6996 214.802 67.0548C218.447 63.4099 223.091 60.9278 228.147 59.9222C233.202 58.9166 238.442 59.4327 243.204 61.4053C247.967 63.3778 252.037 66.7183 254.901 71.0041C257.764 75.29 259.293 80.3288 259.293 85.4834C259.285 92.3931 256.537 99.0175 251.651 103.903C246.765 108.789 240.141 111.538 233.231 111.545ZM233.231 60.4639C228.283 60.4639 223.445 61.9312 219.331 64.6804C215.216 67.4296 212.01 71.3371 210.116 75.9088C208.222 80.4806 207.727 85.5112 208.692 90.3645C209.658 95.2178 212.04 99.6758 215.539 103.175C219.039 106.674 223.497 109.057 228.35 110.022C233.203 110.988 238.234 110.492 242.806 108.598C247.377 106.705 251.285 103.498 254.034 99.3835C256.783 95.2691 258.25 90.4318 258.25 85.4834C258.243 78.8501 255.605 72.4907 250.914 67.8002C246.224 63.1098 239.864 60.4714 233.231 60.4639Z" fill="#3F3D56"/>
<path d="M170.901 103.664C166.12 108.38 159.675 111.024 152.96 111.024C146.245 111.024 139.8 108.38 135.019 103.664C136.617 100.255 139.153 97.3719 142.33 95.352C145.508 93.3322 149.195 92.2595 152.96 92.2595C156.725 92.2595 160.412 93.3322 163.59 95.352C166.767 97.3719 169.303 100.255 170.901 103.664Z" fill="#3F3D56"/>
<path d="M251.172 103.664C246.391 108.38 239.946 111.024 233.231 111.024C226.516 111.024 220.071 108.38 215.29 103.664C216.888 100.255 219.424 97.3719 222.601 95.352C225.779 93.3322 229.466 92.2595 233.231 92.2595C236.996 92.2595 240.683 93.3322 243.86 95.352C247.038 97.3719 249.574 100.255 251.172 103.664Z" fill="#3F3D56"/>
<path d="M176.416 128.225C176.416 125.346 185.75 123.013 197.265 123.013C208.78 123.013 218.115 125.346 218.115 128.225C218.115 131.104 208.78 141.777 197.265 141.777C185.75 141.777 176.416 131.104 176.416 128.225Z" fill="#3F3D56"/>
<path d="M127.68 127.443C132.574 127.443 136.541 123.476 136.541 118.582C136.541 113.688 132.574 109.721 127.68 109.721C122.786 109.721 118.819 113.688 118.819 118.582C118.819 123.476 122.786 127.443 127.68 127.443Z" fill="#FF6584"/>
<path d="M258.772 127.704C263.665 127.704 267.633 123.737 267.633 118.843C267.633 113.949 263.665 109.982 258.772 109.982C253.878 109.982 249.911 113.949 249.911 118.843C249.911 123.737 253.878 127.704 258.772 127.704Z" fill="#FF6584"/>
<path d="M69.132 241.523L75.5224 241.523L78.5623 216.875L69.131 216.875L69.132 241.523Z" fill="#FFB8B8"/>
<path d="M87.8465 248.499L67.7628 248.499L67.7624 240.74L80.0866 240.739C82.1445 240.739 84.1183 241.557 85.5735 243.012C87.0288 244.467 87.8464 246.441 87.8465 248.499Z" fill="#2F2E41"/>
<path d="M37.3364 241.523L43.7268 241.523L46.7666 216.875L37.3353 216.875L37.3364 241.523Z" fill="#FFB8B8"/>
<path d="M56.051 248.499L35.9672 248.499L35.9669 240.74L48.291 240.739C50.349 240.739 52.3227 241.557 53.778 243.012C55.2333 244.467 56.0509 246.441 56.051 248.499Z" fill="#2F2E41"/>
<path d="M70.8786 141.064L76.496 185.57C77.2682 191.689 77.8085 197.83 78.1169 203.994L79.6303 234.262C79.6444 234.544 79.601 234.826 79.5027 235.091C79.4044 235.356 79.2533 235.598 79.0586 235.803C78.8638 236.007 78.6295 236.17 78.3698 236.282C78.1101 236.393 77.8305 236.451 77.5479 236.451H69.0223C68.5236 236.451 68.0414 236.272 67.6632 235.947C67.285 235.622 67.0358 235.172 66.961 234.679L59.2935 184.163C59.2565 183.92 59.1345 183.697 58.9491 183.535C58.7637 183.373 58.5268 183.282 58.2805 183.277C58.0342 183.273 57.7944 183.356 57.6036 183.512C57.4127 183.668 57.2832 183.886 57.238 184.128L48.0009 233.603C47.9095 234.048 47.6754 234.45 47.3343 234.75C46.9931 235.049 46.5635 235.229 46.1107 235.263L38.264 235.76C37.9726 235.782 37.6801 235.742 37.4052 235.643C37.1304 235.544 36.8795 235.388 36.6686 235.186C36.4578 234.984 36.2918 234.739 36.1814 234.469C36.0711 234.199 36.0187 233.908 36.0278 233.616L38.5617 152.531L70.8786 141.064Z" fill="#2F2E41"/>
<path d="M45.9905 77.6705C53.061 77.6705 58.7927 71.9388 58.7927 64.8684C58.7927 57.7979 53.061 52.0662 45.9905 52.0662C38.9201 52.0662 33.1883 57.7979 33.1883 64.8684C33.1883 71.9388 38.9201 77.6705 45.9905 77.6705Z" fill="#FFB8B8"/>
<path d="M35.9556 153.574C39.083 160.871 52.6353 166.083 55.7627 155.658C58.1813 147.6 67.7617 144.212 71.9888 143.091C72.5204 142.95 72.9747 142.604 73.2537 142.13C73.5327 141.656 73.6139 141.092 73.4798 140.558L61.6631 94.1417C60.9748 91.4379 59.6041 88.956 57.6821 86.9335C55.76 84.9111 53.351 83.4159 50.6857 82.591C41.2932 79.6825 31.3897 85.6715 29.7997 95.3718C29.3655 98.0918 29.0888 100.835 28.971 103.587C27.9909 124.066 33.8966 148.768 35.9556 153.574Z" fill="#CCEEEF"/>
<path d="M107.064 111.757C106.433 111.322 105.715 111.03 104.959 110.902C104.204 110.774 103.43 110.813 102.691 111.017C101.952 111.221 101.267 111.584 100.684 112.081C100.101 112.578 99.6339 113.197 99.3159 113.894L80.7717 112.146L85.3183 120.691L102.231 121.041C103.438 121.498 104.77 121.496 105.975 121.036C107.181 120.576 108.175 119.69 108.771 118.546C109.367 117.401 109.522 116.078 109.207 114.827C108.893 113.576 108.13 112.484 107.064 111.757Z" fill="#FFB8B8"/>
<path d="M97.8418 121.261C97.6215 121.506 97.3521 121.702 97.0511 121.836C96.7501 121.97 96.4243 122.039 96.0948 122.039L71.8884 121.486C66.0291 121.481 60.3709 119.348 55.9663 115.484L41.4521 102.755C40.5806 102.278 39.8117 101.635 39.1893 100.86C38.5669 100.086 38.1032 99.1969 37.8249 98.2434C37.5465 97.2898 37.4589 96.2908 37.5671 95.3033C37.6752 94.3159 37.977 93.3595 38.4552 92.4888C38.9333 91.6181 39.5784 90.8502 40.3537 90.2291C41.1289 89.608 42.0189 89.1458 42.9729 88.8691C43.927 88.5923 44.9262 88.5063 45.9134 88.6161C46.9007 88.7259 47.8566 89.0293 48.7265 89.5089L72.765 108.477L96.1704 112.988C96.6386 113.103 97.0601 113.359 97.378 113.721C97.696 114.083 97.895 114.535 97.9482 115.014L98.4288 119.44C98.4801 119.915 98.3855 120.394 98.1576 120.813C98.0704 120.974 97.9644 121.124 97.8418 121.261Z" fill="#2F2E41"/>
<path d="M36.2733 75.3396C36.549 75.5031 36.8587 75.6009 37.1782 75.6255C37.4978 75.6501 37.8188 75.6008 38.1163 75.4814C38.4137 75.3621 38.6797 75.1759 38.8937 74.9372C39.1077 74.6985 39.2638 74.4138 39.3501 74.1051L39.3572 74.076C39.5896 73.1044 39.3966 72.0897 39.33 71.0929C39.2633 70.0961 39.3609 69.001 40.0398 68.2681C41.3053 66.9019 43.5569 67.6261 45.3869 67.2807C46.4588 67.0414 47.4068 66.4198 48.0534 65.532C48.7001 64.6443 49.0011 63.5513 48.9001 62.4577C48.874 62.2505 48.8331 62.0431 48.7873 61.8358C48.6728 61.3105 48.6817 60.7659 48.8131 60.2447C48.9446 59.7235 49.1951 59.2398 49.5449 58.8316C49.8947 58.4235 50.3344 58.102 50.8294 57.8924C51.3244 57.6827 51.8612 57.5907 52.3978 57.6235C54.2472 57.7292 56.2435 58.2896 57.7736 56.9198C58.3346 56.3794 58.7241 55.6859 58.8934 54.9257C59.0627 54.1654 59.0044 53.3722 58.7257 52.6449C57.852 50.123 55.3826 48.8027 52.939 48.0769C49.9167 47.2037 46.7378 47.0149 43.6335 47.5243C40.5291 48.0337 37.5772 49.2284 34.9925 51.0217C33.449 52.1096 32.0076 53.4766 31.3497 55.2467C30.6918 57.0168 31.0092 59.25 32.4927 60.4185C31.3428 61.6359 30.5331 63.1342 30.1446 64.7632C29.7562 66.3921 29.8026 68.0946 30.2794 69.6999C31.0121 72.0609 34.5089 74.3244 36.2733 75.3396Z" fill="#2F2E41"/>
<path d="M312.172 241.425H305.782L302.742 216.776L312.174 216.777L312.172 241.425Z" fill="#A0616A"/>
<path d="M301.218 240.641H313.542V248.401H293.458C293.458 247.382 293.659 246.373 294.049 245.431C294.439 244.49 295.01 243.634 295.731 242.914C296.451 242.193 297.307 241.622 298.248 241.232C299.189 240.842 300.198 240.641 301.218 240.641Z" fill="#2F2E41"/>
<path d="M357.52 241.425H351.13L348.09 216.776L357.522 216.777L357.52 241.425Z" fill="#A0616A"/>
<path d="M346.565 240.641H358.889V248.401H338.806C338.806 247.382 339.006 246.373 339.396 245.431C339.786 244.49 340.358 243.634 341.078 242.914C341.799 242.193 342.654 241.622 343.596 241.232C344.537 240.842 345.546 240.641 346.565 240.641Z" fill="#2F2E41"/>
<path d="M312.28 226.159C312.211 226.159 312.141 226.156 312.071 226.15L303.027 225.426C302.668 225.398 302.319 225.295 302.002 225.125C301.685 224.955 301.406 224.721 301.184 224.437C300.962 224.154 300.801 223.828 300.711 223.48C300.621 223.131 300.604 222.768 300.662 222.413L314.374 137.596L315.293 125.633C315.334 125.074 315.555 124.543 315.923 124.12C316.291 123.697 316.786 123.405 317.334 123.287L331.127 120.27C331.634 120.157 332.163 120.199 332.646 120.39C333.129 120.582 333.544 120.914 333.835 121.344L337.198 126.26C338.519 128.171 339.954 130 341.496 131.738C343.882 134.455 347.939 140.489 348.303 150.364C348.401 153.608 348.738 156.841 349.311 160.035L360.415 219.853C360.471 220.204 360.455 220.562 360.368 220.907C360.281 221.251 360.124 221.574 359.907 221.855C359.69 222.136 359.418 222.371 359.108 222.543C358.797 222.715 358.455 222.823 358.101 222.858L349.528 223.507C348.914 223.568 348.299 223.408 347.793 223.057C347.287 222.705 346.922 222.185 346.764 221.589L331.556 165.034C331.526 164.924 331.461 164.826 331.37 164.756C331.278 164.686 331.167 164.648 331.052 164.649C330.937 164.649 330.826 164.687 330.735 164.757C330.644 164.827 330.579 164.925 330.549 165.036L314.798 224.223C314.649 224.778 314.322 225.268 313.867 225.618C313.412 225.968 312.854 226.158 312.28 226.159Z" fill="#2F2E41"/>
<path d="M336.332 81.8324C343.402 81.8324 349.134 76.1007 349.134 69.0302C349.134 61.9598 343.402 56.228 336.332 56.228C329.261 56.228 323.529 61.9598 323.529 69.0302C323.529 76.1007 329.261 81.8324 336.332 81.8324Z" fill="#A0616A"/>
<path d="M314.633 127.558L314.368 109.276C313.393 97.5831 318.571 91.4438 323.087 88.3555C324.252 87.5694 325.564 87.0279 326.944 86.7637C328.324 86.4996 329.743 86.5183 331.116 86.8188L341.191 88.9969C342.594 89.3026 343.921 89.8897 345.09 90.7226C346.26 91.5555 347.248 92.617 347.996 93.8428C348.711 94.9994 349.181 96.2907 349.375 97.6364C349.57 98.9822 349.486 100.354 349.128 101.665C348.428 104.121 346.876 106.247 344.75 107.661C336.093 113.772 335.483 124.038 335.478 124.141L335.467 124.353L314.633 127.558Z" fill="#CCEEEF"/>
<path d="M286.67 116.869C286.148 117.492 285.5 117.997 284.769 118.351C284.037 118.706 283.239 118.901 282.427 118.925C281.614 118.948 280.806 118.799 280.055 118.488C279.305 118.176 278.628 117.709 278.071 117.117C273.022 111.822 281.276 103.871 286.344 109.178C286.523 109.361 286.688 109.556 286.84 109.762L312.396 109.126L315.446 103.547L324.82 107.187C323.021 109.978 320.954 120.932 316.247 120.399C315.63 120.416 287.301 116.914 286.67 116.869Z" fill="#A0616A"/>
<path d="M320.857 112.647L313.713 107.405C313.212 107.036 312.878 106.484 312.783 105.869C312.689 105.255 312.842 104.628 313.21 104.126L322.307 91.7293C322.834 91.0117 323.496 90.4048 324.257 89.9432C325.018 89.4817 325.863 89.1746 326.742 89.0395C327.622 88.9044 328.52 88.9439 329.384 89.1557C330.249 89.3676 331.063 89.7476 331.78 90.2742C332.498 90.8007 333.105 91.4635 333.566 92.2246C334.027 92.9857 334.334 93.8302 334.469 94.7099C334.604 95.5896 334.564 96.4873 334.352 97.3517C334.14 98.216 333.76 99.0302 333.233 99.7475L324.135 112.144C323.767 112.645 323.215 112.979 322.6 113.074C321.985 113.168 321.358 113.015 320.857 112.647Z" fill="#CCEEEF"/>
<path d="M333.22 65.8307C331.41 66.4035 329.531 66.7271 327.634 66.7926C325.738 66.7711 323.768 66.1688 322.488 64.7706C320.67 62.7848 320.694 59.5495 322.101 57.254C323.508 54.9585 326.034 53.5285 328.646 52.8737C331.258 52.2189 333.986 52.2498 336.678 52.2861C339.875 49.9551 344.537 50.3097 347.817 52.5215C351.098 54.7333 353.102 58.4825 353.954 62.3464C354.805 66.2103 354.619 70.222 354.296 74.1653C354.119 76.3263 354.3 79.1318 356.365 79.7943C357.668 80.2124 359.076 79.4454 360.009 78.4452C360.943 77.4451 361.595 76.2024 362.571 75.2433C364.651 73.1995 367.988 72.7852 370.735 73.7616C373.483 74.738 375.674 76.9125 377.22 79.3853C379.328 82.7587 380.358 86.6945 380.172 90.6681C379.986 94.6417 378.593 98.4642 376.18 101.626C373.766 104.788 370.446 107.139 366.662 108.366C362.878 109.593 358.81 109.638 355 108.494C347.951 106.377 342.629 100.428 339.204 93.9131C334.813 85.517 332.997 76.012 333.982 66.5884L333.22 65.8307Z" fill="#2F2E41"/>
<path d="M419.479 248.632H-33.4788C-33.617 248.632 -33.7496 248.577 -33.8473 248.479C-33.9451 248.381 -34 248.249 -34 248.11C-34 247.972 -33.9451 247.84 -33.8473 247.742C-33.7496 247.644 -33.617 247.589 -33.4788 247.589H419.479C419.617 247.589 419.75 247.644 419.847 247.742C419.945 247.84 420 247.972 420 248.11C420 248.249 419.945 248.381 419.847 248.479C419.75 248.577 419.617 248.632 419.479 248.632Z" fill="#3F3D56"/>
</g>
<defs>
<clipPath id="clip0_312_615">
<rect width="454" height="248.631" fill="white" transform="translate(-34)"/>
</clipPath>
</defs>
</svg>
