<svg width="244" height="292" fill="none" xmlns="http://www.w3.org/2000/svg"><path d="M98.6 16.83S101.07.03 119.97.03c18.9 0 28.06 21.49 32.33 34.09 4.27 12.6 15.27 24.47 29.6 31.48 14.33 7.02 25.17 14.57 23.33 30.46 0 0 30.67 23.94-27.76 28.36-58.44 4.42-87.14-32.25-83.6-51.13C97.4 54.4 74.6 28.79 98.6 16.83Z" fill="#3B2645"/><path d="M133.97 57.13s-2.67 25.8 8.66 28.06c0 0 4.7 46.31-21.73 46.31S97.17 86.6 97.17 86.6s11.26-2.96 10.36-27.87c-.9-24.9 26.8-18.92 26.44-1.6Z" fill="#FFEDE5"/><path d="M126.1 59.42c2.23-8.48-9.27-10.2-17-10.44-1.1 2.5-1.73 5.72-1.6 9.74.17 3.53 0 7.08-.43 10.6 4.4.34 16.33.3 19.03-9.9ZM104.32 51.5c2.38-.81 3.07-5.08 1.54-9.52-1.53-4.45-4.7-7.39-7.1-6.57-2.38.82-3.07 5.08-1.54 9.53 1.54 4.45 4.71 7.39 7.1 6.57ZM144.02 44.9c1.53-4.45.84-8.71-1.55-9.53-2.38-.82-5.56 2.12-7.1 6.57-1.52 4.44-.83 8.71 1.55 9.53 2.39.82 5.56-2.12 7.1-6.57Z" fill="#E0855C"/><path d="M100.03 20.98S98.2 65.5 119.33 65.6c16.44.07 21.14-19.91 21.4-42.42.27-22.51-40.43-19.49-40.7-2.2Z" fill="#FFEDE5"/><path d="M121 52.57c-3.53 0-6.63-2.13-6.67-2.16-.16-.1-.2-.3-.06-.47.1-.16.3-.2.46-.06.07.03 6.07 4.12 10.5.63.14-.1.37-.1.47.07.1.16.1.36-.07.46a7.5 7.5 0 0 1-4.63 1.53ZM107.27 34.15s2.76 1.76 7.43.33c0-.03-3.97 4.03-7.43-.33ZM133.8 34.52s-2.77 1.76-7.43.33c0 0 3.96 4.06 7.43-.33ZM105.67 28.73s3.5-3.86 8.6-2.66c2.6.6 1.6-2.6-3.1-2.4-4.7.2-5.5 5.06-5.5 5.06ZM135.67 28.73s-3.5-3.86-8.6-2.66c-2.6.6-1.6-2.6 3.1-2.4 4.7.2 5.5 5.06 5.5 5.06ZM120.2 45.12c-1 0-3.13-.73-3.87-1.46-.26-.27-.36-.53-.33-.8.07-.4.37-1.66.8-3.26.57-2.3 1.3-5.12 1.53-6.51.24-1.33 0-2.73-.63-3.93-.1-.16-.03-.36.13-.46.17-.1.37-.04.47.13.7 1.33.97 2.86.7 4.36-.23 1.43-.97 4.29-1.53 6.58-.4 1.53-.74 2.86-.77 3.2 0 .03.03.1.13.22.7.7 2.9 1.37 3.54 1.27a7.05 7.05 0 0 0 3.16-1.63.36.36 0 0 1 .47-.03c.13.13.13.33.03.46a7.8 7.8 0 0 1-3.56 1.83c-.14.03-.2.03-.27.03Z" fill="#472938"/><path d="M100.33 32.39s1.34-10.6 4.64-14.5c0 0 5.53-2.46 14.33 2.76s14.97 9.61 23.13 8.31c0 0 .77-25.3-20.33-23.94C101 6.4 96.67 17.4 100.33 32.4Z" fill="#3B2645"/><path d="M239.77 188.73c-.34-.53-1.34.36-1.34.36s-1.03-1.16-3.83-.33c-2.8.83-11.1 7.95-11.1 7.95-3.73-.07-9.83 3.59-9.83 3.59s-4.6-1.9-8.77-8.15-8.7-9.3-8.7-9.3-9.77-39.18-16.37-63.61c-6.7 2.82-15.4 13.96-21.6 22.94.14 4.22.27 6.91.27 6.91s21.73 57.53 24.53 59.25c2.8 1.73 34.77 5.59 35.1 5.36.34-.23 3.27.53 4.47 0 1.2-.53 2.67.33 4.13-.67 1.47-1 4 .53 5.04-.43 1.03-.96 2.83-.56 4.03-1.13 1.2-.56 7.9-10 8.03-11.7.14-1.7-3.73-10.51-4.06-11.04Z" fill="#FFEDE5"/><path d="M163.83 130.7s11.37 19.36 2.37 38.41l-7.73-20.08 5.36-18.32Z" fill="#E0855C"/><path d="M179.8 119.17c-2.37-8.78-4.33-15.66-5.3-18.16-3.67-9.57-10.43-10-10.43-10-6.67.1-6.34 35.74-5.87 51.1 6.2-8.98 14.9-20.08 21.6-22.94Z" fill="#AB8DA8"/><path d="M188.8 184.87c-.13 0-.27-.1-.33-.23-.04-.17.06-.37.23-.4l6.53-1.73c.17-.03.37.07.4.23.04.17-.06.37-.23.4l-6.53 1.73h-.07ZM221.13 207.51a.33.33 0 0 1-.33-.33c-.17-4.06-4.97-4.22-5.17-4.22a.33.33 0 0 1-.33-.33c0-.2.17-.34.33-.34.07 0 5.6.2 5.8 4.86.07.2-.1.36-.3.36.04 0 .04 0 0 0Z" fill="#472938"/><path d="M219.67 210.54c-.04 0-.1 0-.14-.03-.16-.07-.23-.27-.16-.44.4-.86 4-8.64 5.5-9.64 1.23-.83 2.73-.56 3.33-.03.4.33.27.66.23.76-.16.37-2.1 5.16-3.06 7.62-.07.16-.27.26-.44.2-.16-.07-.26-.27-.2-.44.1-.3 2.7-6.75 3.07-7.58-.07-.06-.23-.2-.57-.26a2.55 2.55 0 0 0-2 .33c-1.13.76-4.2 7.01-5.3 9.38-.03.06-.13.13-.26.13Z" fill="#472938"/><path d="M230.2 208.04c-.2 0-.33-.13-.33-.33 0-.06 0-.06.93-3.36.77-2.69 2-7.08 2.13-7.78-.2-.2-1.13-.6-1.76-.4-.5.17-2.04 2.43-3.17 4.43-.1.16-.3.2-.47.13-.16-.1-.2-.3-.13-.47.6-1.03 2.6-4.42 3.53-4.75.8-.27 1.84.1 2.3.43.24.17.37.37.37.53 0 .2-.47 1.9-2.17 8.02l-.9 3.22c0 .2-.16.33-.33.33Z" fill="#472938"/><path d="M234.9 207.35h-.07c-.16-.04-.3-.24-.26-.4 1.16-5.19 2.86-13.1 2.9-13.97-.14-.2-.74-.53-1.77-.53-.57 0-2 1.9-2.97 3.66-.1.16-.3.23-.46.13-.17-.1-.24-.3-.14-.46.54-.94 2.34-4 3.57-4 1.17 0 2.13.4 2.4.97.07.13.23.5-2.9 14.33 0 .17-.13.27-.3.27Z" fill="#472938"/><path d="M237.4 192.78c-.13 0-.27-.1-.33-.23-.54-1.7 1.03-3.59 1.1-3.66.13-.13.33-.16.46-.03.14.13.17.33.04.47 0 .03-1.4 1.7-.97 3.05.07.17-.03.37-.23.44 0-.04-.04-.04-.07-.04ZM235.63 204.12a.25.25 0 0 1-.16-.06c-.17-.1-.2-.3-.1-.47l2.73-4.12-.8-4.99c-.03-.17.1-.37.27-.37.16-.03.36.1.36.27l.87 5.25-2.87 4.36c-.1.06-.2.13-.3.13Z" fill="#472938"/><path d="M4.47 194.28c.3-.53 1.33.3 1.33.3s1-1.2 3.83-.47c2.84.73 11.4 7.48 11.4 7.48 3.7-.2 10 3.2 10 3.2s4.54-2.1 8.47-8.51c3.93-6.42 8.33-9.68 8.33-9.68s8.17-39.5 13.8-64.24c6.8 2.56 15.94 13.33 22.5 22.05.04 4.22.04 6.91.04 6.91s-19.4 58.32-22.14 60.18c-2.73 1.87-34.53 6.95-34.83 6.75-.3-.2-3.23.67-4.47.17-1.23-.5-2.63.47-4.16-.5-1.54-.96-3.97.67-5.07-.23s-2.83-.47-4.1-.97c-1.27-.5-8.3-9.67-8.5-11.37-.2-1.7 3.27-10.54 3.57-11.07Z" fill="#FFEDE5"/><path d="M78.03 133.3s-10.56 19.82-.83 38.47l6.9-20.38-6.07-18.09Z" fill="#E0855C"/><path d="M61.6 122.4c2-8.85 3.7-15.8 4.57-18.36C69.43 94.34 76.2 93.6 76.2 93.6c6.67-.17 7.73 35.48 7.9 50.84-6.57-8.68-15.7-19.45-22.5-22.05Z" fill="#AB8DA8"/><path d="M55.23 188.4h-.06l-6.6-1.47c-.17-.03-.3-.23-.27-.4.03-.16.23-.3.4-.26l6.6 1.46c.17.03.3.23.27.4-.04.16-.2.27-.34.27ZM23.8 212.3a.33.33 0 0 1-.33-.33c.03-4.69 5.53-5.09 5.6-5.09.16 0 .33.13.36.3 0 .2-.13.33-.3.37-.2 0-4.96.36-4.96 4.42-.04.2-.17.33-.37.33Z" fill="#472938"/><path d="M25.43 215.26a.35.35 0 0 1-.3-.17c-1.16-2.29-4.5-8.44-5.66-9.17a2.67 2.67 0 0 0-2.04-.27c-.3.1-.46.23-.53.3.4.83 3.23 7.18 3.37 7.48.06.17 0 .37-.17.43-.17.07-.37 0-.43-.16-1.1-2.43-3.2-7.15-3.37-7.52-.13-.23-.03-.53.2-.76.57-.53 2.07-.87 3.33-.1 1.57.93 5.47 8.58 5.9 9.44.07.17.04.37-.13.43-.07.07-.13.07-.17.07Z" fill="#472938"/><path d="M14.77 213.17c-.17 0-.3-.1-.34-.27-.03-.17-.46-1.5-.96-3.06-2-6.15-2.54-7.88-2.54-8.08 0-.2.1-.36.34-.53.46-.37 1.46-.77 2.3-.53.96.26 3.1 3.59 3.73 4.59.1.16.03.36-.1.46a.36.36 0 0 1-.47-.1c-1.23-1.96-2.86-4.16-3.33-4.29-.67-.2-1.57.27-1.77.47.17.6 1.6 5.12 2.5 7.84 1 3.1 1 3.1 1 3.16 0 .17-.16.34-.36.34.03 0 .03 0 0 0Z" fill="#472938"/><path d="M10.07 212.7c-.14 0-.27-.1-.34-.23-3.66-13.73-3.5-14.1-3.46-14.23.23-.6 1.16-1.03 2.36-1.07h.04c1.23 0 3.13 2.96 3.7 3.86.1.17.03.37-.1.47a.36.36 0 0 1-.47-.1c-1.03-1.7-2.53-3.56-3.1-3.56-1 .03-1.6.4-1.73.6.06.86 2.1 8.7 3.46 13.83.04.16-.06.36-.23.4-.1 0-.13.03-.13.03Z" fill="#472938"/><path d="M7 198.27h-.1c-.17-.03-.3-.23-.23-.4.36-1.4-1.07-3-1.1-3.03-.14-.13-.1-.33.03-.46s.33-.1.47.03c.06.07 1.7 1.9 1.23 3.63a.32.32 0 0 1-.3.23ZM9.2 209.47a.3.3 0 0 1-.27-.13l-3.03-4.22.63-5.29c.04-.16.2-.3.37-.3.17.04.3.2.3.37l-.6 5.02 2.9 4.02c.1.14.07.37-.07.47-.1.06-.16.06-.23.06Z" fill="#472938"/><path d="M142.6 85.19 164.07 91s-2.6 34.61 1.83 41.76c4.43 7.15 1.97 23.4-3.4 31.49 0 0-8.6 27.6-6.27 34.08 2.34 6.48 10.17 20.81 10.17 20.81s-34.97 17.69-85.57 1.96c0 0 10.04-21.08 8.47-29.16-1.57-8.08-12.4-30.59-12.27-41.23.14-10.64 3.54-39.03-1.43-56.99l21.47-7.14s.36 42.16 24.8 42.16c24.43 0 20.73-43.56 20.73-43.56Z" fill="#AB8DA8"/><path d="M162.53 164.26s-2.66 5.32-19.6 7.54c0 0 16.3 1.23 14.67 11l4.93-18.54ZM79.37 162.76s4 7.48 22.1 9.18c0 0-19.84-3-16.14 7.84l-5.96-17.02Z" fill="#543753"/><path d="M77.13 152.59c-.16 0-.33-.14-.33-.3-.03-.57-.07-1.07-.03-1.57.03-2.4.23-5.65.43-9.44.3-5.19.67-11.64.77-18.25 0-.2.13-.34.33-.34s.33.17.33.34c-.1 6.61-.46 13.1-.76 18.28-.24 3.8-.4 7.05-.44 9.45 0 .46 0 .96.04 1.5 0 .13-.14.3-.34.33ZM165.9 133.1a.4.4 0 0 1-.3-.16c-1.47-2.37-2.33-7.79-2.57-16.1 0-.2.14-.33.34-.33.16 0 .33.13.33.33.23 8.22 1.07 13.53 2.47 15.76.1.17.03.37-.1.47-.04 0-.1.03-.17.03Z" fill="#472938"/><path d="M82 218.65s18.83 7.15 40.87 6.39c22.03-.77 66.13-16.66 86.73-13.4 20.6 3.26 19.27 12 18.57 16.02-.7 4.03-43.47 64.37-81.04 64.37H89.57s-70.74-44.45-73.04-57.29c-2.3-12.83-.63-20.51 19.1-20.88 19.74-.36 41.07 3.06 46.37 4.8Z" fill="#3B2645"/><path d="M122.13 238.24s28.14-11.68 51.64-15.7c0 0 15.13 23.41 10.7 43.2-.04 0-53.84-11.78-62.34-27.5Z" fill="#FFEDE5"/><path d="M122.13 238.24s68.07 8.87 62.3 27.5c-5.76 18.61-62.3-27.5-62.3-27.5Z" fill="#E0855C"/><path d="M152.73 271.92s-69.76 5.98-85.06 9.1c-15.3 3.13-30.8 1.74-40.27 5.03-9.47 3.29-14.7 5.82-15.83 5.95-1.14.13-3.74-14.53 1.03-19.72 0 0-1.47-5.28 5.2-9.37 6.67-4.1 17.73 1.3 21.83 0 4.1-1.3 7.04-2.5 11.4-1.57 4.37.94 15.04 3.56 15.04 3.56s54.93-34.81 86.66 7.02Z" fill="#FFEDE5"/><path d="m66.1 264.9 41.43 11.24 45.2-4.22s-20.6-21.15-49.03-19.19c-28.43 1.96-37.6 12.17-37.6 12.17Z" fill="#E0855C"/><path d="M80.53 223.1s21.4 4.33 52.34 20.49c30.93 16.16 56.53 9.54 65.56 12.67 9.04 3.12 26.17.7 28.97 3.12 2.8 2.43 4.63 6.69 2.97 8.51 0 0 7.46 17.1 6.76 18.23-.7 1.13-3.3 1.03-4.53.76-1.23-.27-12.1-5.65-24.6-7.88-12.5-2.23-46.97-7.02-74.43-8.41-27.47-1.4-67.47-4.16-67.47-4.16s.93-33.61 14.43-43.32Z" fill="#FFEDE5"/><path d="M228.1 268.6c-1.07 0-2.5-.2-4.33-.84-.17-.06-.27-.26-.2-.43.06-.17.26-.27.43-.2 4.13 1.46 6.13.47 6.17.47.16-.1.36-.04.43.13.1.16.03.36-.13.43-.04 0-.8.43-2.37.43ZM15.97 273.31c-2.34 0-3.47-.73-3.54-.76-.16-.1-.2-.3-.1-.47.1-.16.3-.2.47-.1 0 0 1.2.73 3.53.64 2.44-.07 5.07-1.27 5.1-1.27.17-.06.37 0 .44.17.06.17 0 .36-.17.43-.1.07-2.8 1.23-5.33 1.33-.14.03-.27.03-.4.03Z" fill="#472938"/></svg>