<svg width="116" height="76" fill="none" xmlns="http://www.w3.org/2000/svg"><path d="M36.65 72.28h78.14c.77 0 1.3-.6 1.2-1.36l-7.9-57.93c-.1-.76-.8-1.37-1.55-1.37H29.46c-.74 0-1.28.6-1.2 1.37l6.85 57.93c.1.75.78 1.36 1.54 1.36Z" fill="#3B2645"/><path d="M35.89 72.28h78.14c.76 0 1.3-.6 1.2-1.36l-7.91-57.93a1.6 1.6 0 0 0-1.54-1.37H28.7c-.75 0-1.28.6-1.2 1.37l6.85 57.93c.1.75.78 1.36 1.54 1.36Z" fill="url(#a)"/><path opacity=".3" d="m111 40.02-8.05 32.26H80.8l26.67-58.16 3.53 25.9Z" fill="#543753"/><path d="M99.36 72.28H21.22c-.76 0-1.3-.6-1.2-1.36l7.9-57.93c.1-.76.8-1.37 1.55-1.37h77.07c.75 0 1.29.6 1.2 1.37l-6.84 57.93a1.58 1.58 0 0 1-1.54 1.36Z" fill="#3B2645"/><path d="M98.6 72.28H20.45c-.77 0-1.3-.6-1.2-1.36l7.9-57.93c.1-.76.8-1.37 1.55-1.37h77.07c.75 0 1.29.6 1.2 1.37l-6.85 57.93a1.58 1.58 0 0 1-1.54 1.36Z" fill="url(#b)"/><path d="M97.42 70.8H22.04a.64.64 0 0 1-.5-.21.64.64 0 0 1-.14-.52l6.46-47.52c.05-.39.4-.7.8-.7h74.55a.64.64 0 0 1 .64.73l-5.63 47.51c-.05.4-.4.7-.8.7ZM28.65 22.05a.62.62 0 0 0-.59.53L21.6 70.1c-.02.13.02.26.1.35.08.1.2.14.33.14h75.39a.6.6 0 0 0 .58-.52l5.64-47.52a.44.44 0 0 0-.1-.35.43.43 0 0 0-.33-.15H28.65ZM83.12 20.2H51.86c-.5 0-.93-.2-1.24-.54a1.67 1.67 0 0 1-.39-1.34 2.17 2.17 0 0 1 2.09-1.85h31.23c.49 0 .93.2 1.24.54.32.36.46.83.4 1.33a2.15 2.15 0 0 1-2.07 1.86Zm-30.8-3.53c-.92 0-1.76.75-1.89 1.67-.06.45.06.87.34 1.18.27.3.65.47 1.08.47h31.26c.92 0 1.75-.75 1.87-1.67.05-.45-.07-.87-.35-1.18-.27-.3-.65-.47-1.08-.47H52.32Z" fill="#fff"/><path d="M68.53 32.09h-7.78l.79-6.14h7.77l-.78 6.14ZM78.54 32.09h-7.8l.78-6.14h7.78l-.76 6.14ZM88.54 32.09h-7.8l.77-6.14h7.78l-.75 6.14Z" fill="#F2F9FF"/><path d="M98.54 32.09h-7.79l.74-6.14h7.78l-.73 6.14Z" fill="url(#c)"/><path d="M37.34 41.08h-7.8l.82-6.14h7.8l-.82 6.14ZM47.36 41.08h-7.8l.8-6.14h7.8l-.8 6.14ZM57.38 41.08h-7.8l.8-6.14h7.79l-.8 6.14ZM67.4 41.08h-7.8l.78-6.14h7.8l-.78 6.14ZM77.42 41.08h-7.8l.77-6.14h7.79l-.76 6.14ZM87.44 41.08h-7.8l.76-6.14h7.79l-.75 6.14Z" fill="#F2F9FF"/><path d="M97.46 41.08h-7.8l.74-6.14h7.8l-.74 6.14Z" fill="url(#d)"/><path d="M36.14 50.07h-7.82l.83-6.14h7.8l-.81 6.14ZM46.18 50.07h-7.82l.82-6.14h7.8l-.8 6.14ZM56.22 50.07H48.4l.8-6.14h7.81l-.79 6.14ZM66.26 50.07h-7.82l.79-6.14h7.8l-.77 6.14ZM76.3 50.07h-7.82l.78-6.14h7.8l-.76 6.14ZM86.35 50.07h-7.82l.75-6.14h7.81l-.74 6.14Z" fill="#F2F9FF"/><path d="M96.38 50.07h-7.82l.75-6.14h7.81l-.74 6.14Z" fill="url(#e)"/><path d="M34.94 59.07H27.1l.83-6.14h7.83l-.82 6.14ZM45 59.07h-7.84l.82-6.14h7.83l-.8 6.14ZM55.07 59.07h-7.84l.8-6.14h7.83l-.8 6.14ZM65.13 59.07h-7.84l.79-6.14h7.82l-.77 6.14ZM75.18 59.07h-7.83l.78-6.14h7.82l-.77 6.14ZM85.25 59.07H77.4l.76-6.14H86l-.74 6.14Z" fill="#F2F9FF"/><path d="M95.3 59.07h-7.83l.75-6.14h7.82l-.73 6.14Z" fill="url(#f)"/><path d="M33.74 68.06h-7.85l.83-6.14h7.84l-.82 6.14ZM43.83 68.06h-7.86l.82-6.14h7.84l-.8 6.14ZM53.9 68.06h-7.84l.8-6.14h7.84l-.8 6.14ZM63.99 68.06h-7.85l.78-6.14h7.85l-.78 6.14Z" fill="#F2F9FF"/><path d="M74.07 68.06h-7.85l.77-6.14h7.84l-.76 6.14Z" fill="#FDF8EE"/><path d="M99.52 24.18h-7.78a.3.3 0 0 1-.3-.31c0-.17.13-.3.3-.3h7.78a.3.3 0 0 1 .3.3.3.3 0 0 1-.3.3Z" fill="#F2F9FF"/><path d="M89.54 24.18h-7.78a.3.3 0 0 1-.3-.31c0-.17.13-.3.3-.3h7.78a.3.3 0 0 1 .3.3.3.3 0 0 1-.3.3Z" fill="url(#g)"/><path d="M79.56 24.18h-7.78a.3.3 0 0 1-.3-.31c0-.17.13-.3.3-.3h7.78a.3.3 0 0 1 .3.3.3.3 0 0 1-.3.3Z" fill="url(#h)"/><path d="M69.57 24.18H61.8a.3.3 0 0 1-.31-.31c0-.17.14-.3.3-.3h7.78a.3.3 0 0 1 .31.3.3.3 0 0 1-.3.3Z" fill="url(#i)"/><path d="M59.59 24.18h-7.77a.3.3 0 0 1-.31-.31c0-.17.14-.3.3-.3h7.78a.3.3 0 0 1 .31.3.3.3 0 0 1-.31.3Z" fill="url(#j)"/><path d="M49.61 24.18h-7.77a.3.3 0 0 1-.31-.31c0-.17.14-.3.3-.3h7.78a.3.3 0 0 1 .31.3.3.3 0 0 1-.3.3Z" fill="url(#k)"/><path d="M39.63 24.18h-7.78a.3.3 0 0 1-.3-.31c0-.17.13-.3.3-.3h7.78a.3.3 0 0 1 .3.3.3.3 0 0 1-.3.3Z" fill="url(#l)"/><path d="M35.67 14.12a.9.9 0 0 1-.85.76.65.65 0 0 1-.65-.76.9.9 0 0 1 .85-.75c.42 0 .71.34.65.75Z" fill="#3B2645"/><path d="M35.34 8.73a3.43 3.43 0 0 0-3.3 2.93 2.5 2.5 0 0 0 2.8 2.92.54.54 0 0 0 .48-.5.39.39 0 0 0-.44-.4h-.2c-1.1 0-1.89-.9-1.73-2.02a2.37 2.37 0 0 1 2.28-2.02c1.1 0 1.87.88 1.74 1.98h.9a2.5 2.5 0 0 0-2.53-2.9Z" fill="#5080C0"/><path d="M35.67 14.12a.9.9 0 0 1-.85.76.65.65 0 0 1-.65-.76.9.9 0 0 1 .85-.75c.42 0 .71.34.65.75Z" fill="#3B2645"/><path d="M35.34 8.73a3.43 3.43 0 0 0-3.3 2.93 2.5 2.5 0 0 0 2.8 2.92.54.54 0 0 0 .48-.5.39.39 0 0 0-.44-.4h-.2c-1.1 0-1.89-.9-1.73-2.02a2.37 2.37 0 0 1 2.28-2.02c1.1 0 1.87.88 1.74 1.98h.9a2.5 2.5 0 0 0-2.53-2.9Z" fill="#AA8CA7"/><path d="M43.81 14.12a.9.9 0 0 1-.85.76.65.65 0 0 1-.66-.76.9.9 0 0 1 .86-.75c.42 0 .7.34.65.75Z" fill="#3B2645"/><path d="M43.47 8.73a3.43 3.43 0 0 0-3.3 2.93 2.5 2.5 0 0 0 2.8 2.92.54.54 0 0 0 .48-.5.39.39 0 0 0-.44-.4h-.2c-1.1 0-1.89-.9-1.74-2.02a2.38 2.38 0 0 1 2.28-2.02c1.1 0 1.87.88 1.75 1.98h.9a2.5 2.5 0 0 0-2.53-2.9Z" fill="#AA8CA7"/><path d="M51.95 14.12a.89.89 0 0 1-.85.76.65.65 0 0 1-.66-.76.89.89 0 0 1 .85-.75c.42 0 .72.34.66.75Z" fill="#3B2645"/><path d="M51.6 8.73a3.43 3.43 0 0 0-3.3 2.93 2.5 2.5 0 0 0 2.82 2.92.53.53 0 0 0 .47-.5.39.39 0 0 0-.44-.4h-.2c-1.11 0-1.9-.9-1.75-2.02a2.36 2.36 0 0 1 2.28-2.02c1.1 0 1.87.88 1.75 1.98h.9c.19-1.6-.94-2.9-2.53-2.9Z" fill="#AA8CA7"/><path d="M60.09 14.12a.89.89 0 0 1-.85.76.65.65 0 0 1-.66-.76.89.89 0 0 1 .85-.75c.42 0 .72.34.66.75Z" fill="#3B2645"/><path d="M59.73 8.73a3.42 3.42 0 0 0-3.3 2.93 2.52 2.52 0 0 0 2.83 2.92.53.53 0 0 0 .47-.5.39.39 0 0 0-.44-.4h-.2c-1.1 0-1.9-.9-1.75-2.02a2.35 2.35 0 0 1 2.27-2.02c1.1 0 1.88.88 1.76 1.98h.9c.18-1.6-.95-2.9-2.54-2.9Z" fill="#AA8CA7"/><path d="M68.23 14.12a.88.88 0 0 1-.85.76.65.65 0 0 1-.66-.76.89.89 0 0 1 .85-.75c.42 0 .7.34.66.75Z" fill="#3B2645"/><path d="M67.85 8.73a3.41 3.41 0 0 0-3.29 2.93 2.52 2.52 0 0 0 2.84 2.92.53.53 0 0 0 .47-.5.39.39 0 0 0-.44-.4h-.2c-1.1 0-1.9-.9-1.76-2.02a2.35 2.35 0 0 1 2.27-2.02c1.1 0 1.88.88 1.76 1.98h.9c.18-1.6-.95-2.9-2.55-2.9Z" fill="#AA8CA7"/><path d="M76.37 14.12a.88.88 0 0 1-.85.76.65.65 0 0 1-.66-.76.88.88 0 0 1 .85-.75c.42 0 .7.34.66.75Z" fill="#3B2645"/><path d="M75.98 8.73c-.66 0-1.33.23-1.9.65a3.4 3.4 0 0 0-1.38 2.28 2.53 2.53 0 0 0 2.84 2.92.53.53 0 0 0 .47-.5.4.4 0 0 0-.45-.4h-.2c-1.1 0-1.9-.9-1.75-2.02a2.35 2.35 0 0 1 2.26-2.02c1.1 0 1.88.88 1.76 1.98h.9c.18-1.6-.96-2.9-2.55-2.9Z" fill="#AA8CA7"/><path d="M84.5 14.12a.88.88 0 0 1-.84.76.65.65 0 0 1-.66-.76.88.88 0 0 1 .84-.75c.42 0 .72.34.66.75Z" fill="#3B2645"/><path d="M84.11 8.73a3.39 3.39 0 0 0-3.28 2.93 2.53 2.53 0 0 0 2.84 2.92.53.53 0 0 0 .47-.5.4.4 0 0 0-.44-.4h-.2c-1.11 0-1.9-.9-1.76-2.02A2.34 2.34 0 0 1 84 9.64c1.1 0 1.88.88 1.76 1.98h.9c.18-1.6-.96-2.9-2.55-2.9Z" fill="#AA8CA7"/><path d="M92.64 14.12a.88.88 0 0 1-.84.76.65.65 0 0 1-.67-.76.88.88 0 0 1 .85-.75c.42 0 .71.34.66.75Z" fill="#3B2645"/><path d="M92.24 8.73a3.4 3.4 0 0 0-3.27 2.93 2.53 2.53 0 0 0 2.85 2.92.52.52 0 0 0 .46-.5.4.4 0 0 0-.44-.4h-.2c-1.11 0-1.9-.9-1.77-2.02.08-.62.42-1.2.95-1.58.4-.3.85-.44 1.31-.44 1.1 0 1.88.88 1.77 1.98h.9c.17-1.6-.97-2.9-2.56-2.9Z" fill="#AA8CA7"/><path d="M100.78 14.12a.88.88 0 0 1-.85.76.65.65 0 0 1-.66-.76.88.88 0 0 1 .85-.75c.41 0 .71.34.66.75Z" fill="#3B2645"/><path d="M100.37 8.73a3.37 3.37 0 0 0-3.26 2.93 2.54 2.54 0 0 0 2.85 2.92.52.52 0 0 0 .46-.5.4.4 0 0 0-.44-.4h-.2c-1.11 0-1.9-.9-1.77-2.02a2.32 2.32 0 0 1 2.25-2.02c1.1 0 1.88.88 1.77 1.98h.9c.17-1.6-.97-2.9-2.56-2.9Z" fill="#AA8CA7"/><path d="M45.45 40.12a.3.3 0 0 1-.23-.1l-3.42-3.64a.3.3 0 0 1 .01-.44.31.31 0 0 1 .44.02l3.42 3.64a.3.3 0 0 1-.01.44.33.33 0 0 1-.21.08Z" fill="#3B2645"/><path d="M41.7 40.12a.3.3 0 0 1-.23-.1.3.3 0 0 1 .03-.44l4.32-3.65a.3.3 0 0 1 .43.04.3.3 0 0 1-.04.43l-4.3 3.65a.29.29 0 0 1-.2.07ZM64.12 48.64a.3.3 0 0 1-.23-.1l-2.97-3.16a.3.3 0 0 1 .02-.43.31.31 0 0 1 .43.01l2.97 3.16a.3.3 0 0 1-.01.44.33.33 0 0 1-.21.08Z" fill="#3B2645"/><path d="M60.87 48.64a.3.3 0 0 1-.24-.11.3.3 0 0 1 .04-.43l3.74-3.16a.3.3 0 0 1 .44.03.3.3 0 0 1-.04.43l-3.74 3.17a.3.3 0 0 1-.2.07ZM73.94 30.92l-1.33-1.94a.41.41 0 0 1 .68-.46l.82 1.2L77.45 27a.41.41 0 0 1 .59.06.4.4 0 0 1-.06.58l-4.04 3.28ZM71.02 57.28l-.93-1.36a.3.3 0 0 1 .08-.43.3.3 0 0 1 .43.08l.55.8 2.3-1.85c.13-.1.32-.09.43.04a.3.3 0 0 1-.05.43l-2.81 2.29Z" fill="#3B2645"/><path d="M70.4 58.6c-1.15 0-1.62-.47-1.81-.9-.53-1.17.55-3.03 1.88-4.27a.31.31 0 0 1 .44.02.3.3 0 0 1-.01.43c-1.3 1.2-2.08 2.8-1.74 3.57.23.53 1 .57 1.6.52a4.64 4.64 0 0 0 3.87-2.72c.17-.47.17-.88-.01-1.06-.59-.6-2.43.14-3.02.44a.3.3 0 0 1-.42-.13.3.3 0 0 1 .14-.42c.27-.14 2.73-1.34 3.74-.32.36.37.42.99.15 1.7a5.2 5.2 0 0 1-4.81 3.15Z" fill="#3B2645"/><path d="m53.52 57.82-1.11-2.83-1.47 1.57-.48-.63-1.6 1.88h4.66Z" fill="url(#m)"/><path d="M51.71 54.58c.04-.22-.12-.4-.35-.4a.52.52 0 0 0-.49.4c-.04.23.12.4.35.4.23 0 .45-.17.49-.4Z" fill="url(#n)"/><path d="m66.87 30.64-1.11-2.83-1.47 1.57-.48-.63-1.6 1.88h4.66ZM65.06 27.4c.04-.22-.11-.4-.34-.4a.52.52 0 0 0-.5.4c-.04.23.12.4.35.4.23 0 .45-.17.5-.4Z" fill="#3B2645"/><path opacity=".3" d="M45.95 44.69s-.27 5.1-1 7.11h-7s1.42-3.53 1.9-6.7l6.1-.41Z" fill="#543753"/><path d="M45.95 44.69s-.21 4.1-1.95 6.15l-7.15-.16s2.12-2.53 2.77-6h6.33Z" fill="url(#o)"/><path d="M44.42 46.62h-3.97a.1.1 0 0 1-.11-.11c0-.06.05-.1.1-.1h3.98c.06 0 .1.04.1.1 0 .05-.04.1-.1.1ZM44.08 47.4H40.1a.1.1 0 0 1-.1-.1c0-.06.04-.11.1-.11h3.98c.06 0 .1.05.1.1 0 .06-.05.11-.1.11ZM43.7 48.19h-3.97a.1.1 0 0 1-.1-.1c0-.07.04-.11.1-.11h3.98c.06 0 .1.04.1.1a.1.1 0 0 1-.1.11ZM43.34 49h-3.98a.1.1 0 0 1-.1-.1c0-.06.04-.1.1-.1h3.98c.06 0 .1.04.1.1a.1.1 0 0 1-.1.1Z" fill="#3B2645"/><path opacity=".3" d="M77.6 35.5s-.29 5.57-1.09 7.77h-7.65s1.55-3.86 2.08-7.32l6.66-.45Z" fill="#543753"/><path d="M77.6 35.5s-.23 4.48-2.13 6.73l-7.81-.18s2.31-2.76 3.03-6.55h6.9Z" fill="url(#p)"/><path d="M75.93 37.6H71.6a.11.11 0 0 1-.12-.11c0-.07.05-.12.12-.12h4.34c.07 0 .12.05.12.12 0 .06-.06.11-.12.11ZM75.56 38.47H71.2a.11.11 0 0 1-.11-.12c0-.06.05-.11.11-.11h4.35c.06 0 .11.05.11.11 0 .07-.05.12-.11.12ZM75.16 39.33H70.8a.11.11 0 0 1-.11-.12c0-.06.05-.11.11-.11h4.35c.06 0 .11.05.11.11 0 .07-.05.12-.11.12ZM74.75 40.22h-4.34a.11.11 0 0 1-.12-.12c0-.06.05-.11.12-.11h4.34c.06 0 .12.05.12.11 0 .07-.06.12-.12.12Z" fill="#3B2645"/><path d="m17.48 47.69-6.83-1.16s-1.15 4.62-1.47 5.53c-.31.9-1.59 2.56-2.72 6.78-1.14 4.2-2.97 7.8-2.97 7.8s.77-.1 1.12.6c.35.7.85 2.46 1.92 1.72 0 0 6.34-11.07 8-14.17 1.67-3.11 2.95-7.1 2.95-7.1Z" fill="#FFEDE5"/><path d="M10.65 46.54s-.3 1.24-.65 2.56c1.92.74 5.58.85 6.68.86.5-1.33.8-2.27.8-2.27l-6.83-1.15Z" fill="#DD825C"/><path d="M4.62 67.23c-.35-.7-1.13-.6-1.13-.6S1 67.77.12 69.23c-.6 1.02 1.33 3.93 2.55 5.58.56.75 1.43 1.2 2.37 1.2h3.64c.07 0 .13-.06.12-.13-.03-2.28-1-3.13-1.77-3.33-.77-.21-1.15-1.38-.68-2.43.47-1.05.19-1.15.19-1.15-1.08.74-1.57-1.03-1.92-1.73ZM11.57 34.13s-1.88 4.67-.8 7.19l-.84 6.24s4.7 2.42 8.17 1.68c0 0 2.42-7.75 1.66-14-.75-6.25-7.81-3.25-8.2-1.11Z" fill="#3B2645"/><path opacity=".5" d="m17 39.12 1.53 8.57c.37-1.44.88-3.74 1.17-6.28l-2.7-2.3Z" fill="#3B2645"/><path d="M5.5 73.57c-1.1-1.7-3.18-5.47-4.65-5.23-.3.27-.55.57-.73.88-.61 1.02 1.33 3.93 2.55 5.59.55.75 1.43 1.2 2.37 1.2h3.64c.06 0 .12-.07.12-.13 0-.2-.01-.4-.03-.58-.58-.02-2.3-.2-3.28-1.73Z" fill="#E5E5E5"/><path d="M2.67 74.8c.55.76 1.43 1.2 2.37 1.2h3.19a4.25 4.25 0 0 1-3.55-2.2C3.3 71.34 1.05 68.23.12 69.22c-.61 1.02 1.33 3.93 2.55 5.59Z" fill="#AFAFAF"/><path d="M30.64 71.57c.51.07.48-.96.48-.96s-2.99-17.27-3.38-18.93c-.4-1.65-1.41-6.74-1.41-6.74l-5.86 2.62s1.49 3.93 1.59 4.82c.1.88.77 5.64 1.78 7.73 1.01 2.08 3.5 7.66 3.79 11.03 1.42-1.09 2.5.35 3.01.43Z" fill="#FFEDE5"/><path d="M27.12 75.85c.01.09.09.15.18.15h9.11c.1 0 .2-.08.19-.18-.02-.5-.13-1.83-.78-2.1-.8-.32-3.45-.84-4.25-2.75-.25-.61-.44-.38-.45-.36 0 0 .03 1.03-.48.96-.5-.07-1.59-1.52-3.01-.43 0 0-.7 3.07-.5 4.7Z" fill="#3B2645"/><path d="M27.3 76h9.11c.1 0 .2-.09.19-.19 0-.13-.02-.3-.05-.5H27.1c0 .18.01.37.03.54.01.08.08.15.18.15Z" fill="#E5E5E5"/><path d="M21.39 50.09s3.02.58 5.52-2.29l-.58-2.86-5.86 2.62.92 2.53Z" fill="#DD825C"/><path d="M24.88 34.7s1.74 7.36 2.86 12.31c0 0-2.7 3.31-7.35 2.33 0 0-1.87-5.72-2.17-6.3-.3-.57-3.74-5.12-2.24-8.68 1.5-3.56 7.53-2.73 8.9.34Z" fill="#3B2645"/><path d="M22.5 13.47s-4.1-1.08-5.5-1.05c-1.4.02-3.53 1.8-4.13 5.59-.6 3.78-.31 8.83-.6 10.43-.29 1.6-1.37 6.13-1.37 6.2 0 .07 5.6 1.73 7.62 1.7 2-.04 2.6-.38 2.6-.38s.9-1.62.96-1.55c.05.07.63 1.42.63 1.42l2.47-.4s-.81-4.85-.79-5.47c.02-.62.97-10.16 1.15-10.9.16-.74-.27-4.4-3.04-5.6Z" fill="#AA8CA7"/><path opacity=".5" d="m21.3 20.6 3.1 9.12c.13-1.62.97-9.97 1.13-10.66.17-.74-.26-4.4-3.03-5.6 0 0-4.1-1.07-5.5-1.04-.18 0-.37.03-.56.1l6.6 3.8-1.74 4.27Z" fill="#543753"/><path d="M26.58 5.28s-.72 6.73-2.87 7.8c-2.16 1.05-4.02-3.78-3.8-5.68.21-1.9 3.68-4.6 6.67-2.12Z" fill="#FFEDE5"/><path d="M23.34 8.92s.72-.12.94-1.45c0 0 .9-.25.73-1.44 0 0 1.24.64 2.13.13.89-.51 1.1-1.77.95-1.97-.16-.21-.45-.07-.45-.07s.41-1.47-1.38-1.48c-1.79-.03-3.26-.92-4.5-1.24-1.24-.31-3.14.6-3.14 2.37 0 0-2.24.82-1.02 5.33 1.21 4.51 4.87 2.52 4.87 2.52s-.3-2.62.87-2.7Z" fill="#3B2645"/><path d="M23.1 10.22c.47-.13.69-.83.49-1.57-.2-.74-.75-1.23-1.22-1.1-.47.12-.69.82-.49 1.56.2.74.75 1.23 1.22 1.1Z" fill="#FFEDE5"/><path d="m39.19 22.92 5.11 1.12c.11.02.19-.11.1-.2l-3.91-3.78-1.3 2.86Z" fill="#F2F9FF"/><path d="M39.33 21.26c-.34.81-.4 1.55-.14 1.66.26.1.74-.46 1.08-1.27.34-.8.4-1.55.14-1.66-.26-.1-.75.47-1.08 1.27Z" fill="url(#q)"/><path d="M39.19 22.92.45 4.25 2.22 0 40.4 20l-1.22 2.93Z" fill="url(#r)"/><path d="M43.44 23.85c.14-.26.22-.48.27-.66l.71.68c.07.07.01.2-.1.18l-.88-.2ZM6.25 2.12c.16.4.03 1.26-.36 2.2-.44 1.06-1.06 1.83-1.45 1.85L2.2 5.1 3.94.92l2.31 1.2Z" fill="#3B2645"/><path d="m4.2 1.05.28.16c.2.35.08 1.27-.34 2.26-.45 1.08-1.09 1.87-1.48 1.85l-.17-.08-2.04-.99L2.2.02 4.2 1.05Z" fill="#EEE"/><path d="M2.02 2.42c.48-1.17.57-2.25.2-2.4C1.84-.14 1.14.69.65 1.86S.07 4.1.45 4.26c.38.15 1.08-.67 1.57-1.84Z" fill="#EEE"/><path d="M18.47 11.38a.55.55 0 0 1-.26-.07L1.75 2.93a.57.57 0 0 1-.25-.77c.15-.28.5-.4.78-.25l16.46 8.38c.28.14.4.49.25.77-.1.2-.3.32-.52.32Z" fill="#EEE"/><path d="M37.65 18.45c-.06-.33-2.48-1.55-2.63-1.64-.15-.08-.4.15-.4.15l.22.12-.2.95c-.07.3-1.12 1.43-1.12 1.43s-.3-.28-.67-.73c-.36-.44-.77-.4-.8-.31-.03.08.56 1.44.64 1.57.08.13.51.9.51 1.05 0 .14-3.4 3.8-3.4 3.8a15.9 15.9 0 0 0-1.36-2.26c-.96 1.53-2.9 2.95-4.18 3.78.93 1.1 3.9 4.49 5.4 4.29 1.8-.24 5.74-7.9 5.86-8.12.12-.22.3-.3 1.01-.89.72-.6 1.18-2.86 1.12-3.2Z" fill="#FFEDE5"/><path d="M28.44 22.57c-.74-1.07-1.49-2.06-1.7-2.5-.36-.78-1.15-4.45-3.27-4.5-2.12-.04-2.76 2.06-2.76 4.5 0 2.42 3.25 5.94 3.25 5.94l.3.35c1.26-.83 3.21-2.26 4.18-3.79Z" fill="#AA8CA7"/><path opacity=".5" d="M23.47 15.57c-.49-.01-.9.09-1.24.29L26 18.03c-.51-1.2-1.29-2.44-2.52-2.46Z" fill="#543753"/><defs><radialGradient id="c" cx="0" cy="0" r="1" gradientUnits="userSpaceOnUse" gradientTransform="matrix(24.4804 0 0 24.295 79.43 10.92)"><stop offset=".07" stop-color="#F99E96"/><stop offset=".71" stop-color="#F78F98"/><stop offset="1" stop-color="#F68699"/></radialGradient><radialGradient id="d" cx="0" cy="0" r="1" gradientUnits="userSpaceOnUse" gradientTransform="matrix(24.4804 0 0 24.295 79.43 10.92)"><stop offset=".07" stop-color="#F99E96"/><stop offset=".71" stop-color="#F78F98"/><stop offset="1" stop-color="#F68699"/></radialGradient><radialGradient id="e" cx="0" cy="0" r="1" gradientUnits="userSpaceOnUse" gradientTransform="matrix(24.4804 0 0 24.2952 79.43 10.92)"><stop offset=".07" stop-color="#F99E96"/><stop offset=".71" stop-color="#F78F98"/><stop offset="1" stop-color="#F68699"/></radialGradient><radialGradient id="f" cx="0" cy="0" r="1" gradientUnits="userSpaceOnUse" gradientTransform="matrix(24.4806 0 0 24.295 79.43 10.92)"><stop offset=".07" stop-color="#F99E96"/><stop offset=".71" stop-color="#F78F98"/><stop offset="1" stop-color="#F68699"/></radialGradient><radialGradient id="g" cx="0" cy="0" r="1" gradientUnits="userSpaceOnUse" gradientTransform="matrix(24.4804 0 0 24.295 79.43 10.92)"><stop offset=".07" stop-color="#F99E96"/><stop offset=".71" stop-color="#F78F98"/><stop offset="1" stop-color="#F68699"/></radialGradient><radialGradient id="h" cx="0" cy="0" r="1" gradientUnits="userSpaceOnUse" gradientTransform="matrix(24.4804 0 0 24.295 79.43 10.92)"><stop offset=".07" stop-color="#F99E96"/><stop offset=".71" stop-color="#F78F98"/><stop offset="1" stop-color="#F68699"/></radialGradient><radialGradient id="i" cx="0" cy="0" r="1" gradientUnits="userSpaceOnUse" gradientTransform="matrix(24.4804 0 0 24.295 79.43 10.92)"><stop offset=".07" stop-color="#F99E96"/><stop offset=".71" stop-color="#F78F98"/><stop offset="1" stop-color="#F68699"/></radialGradient><radialGradient id="j" cx="0" cy="0" r="1" gradientUnits="userSpaceOnUse" gradientTransform="matrix(24.4807 0 0 24.295 79.43 10.92)"><stop offset=".07" stop-color="#F99E96"/><stop offset=".71" stop-color="#F78F98"/><stop offset="1" stop-color="#F68699"/></radialGradient><radialGradient id="k" cx="0" cy="0" r="1" gradientUnits="userSpaceOnUse" gradientTransform="matrix(24.4804 0 0 24.295 79.43 10.92)"><stop offset=".07" stop-color="#F99E96"/><stop offset=".71" stop-color="#F78F98"/><stop offset="1" stop-color="#F68699"/></radialGradient><radialGradient id="l" cx="0" cy="0" r="1" gradientUnits="userSpaceOnUse" gradientTransform="matrix(24.4804 0 0 24.295 79.43 10.92)"><stop offset=".07" stop-color="#F99E96"/><stop offset=".71" stop-color="#F78F98"/><stop offset="1" stop-color="#F68699"/></radialGradient><radialGradient id="m" cx="0" cy="0" r="1" gradientUnits="userSpaceOnUse" gradientTransform="matrix(8.69533 0 0 8.62946 53.78 53.43)"><stop offset=".07" stop-color="#F99E96"/><stop offset=".71" stop-color="#F78F98"/><stop offset="1" stop-color="#F68699"/></radialGradient><radialGradient id="n" cx="0" cy="0" r="1" gradientUnits="userSpaceOnUse" gradientTransform="matrix(8.69546 0 0 8.6295 53.78 53.43)"><stop offset=".07" stop-color="#F99E96"/><stop offset=".71" stop-color="#F78F98"/><stop offset="1" stop-color="#F68699"/></radialGradient><radialGradient id="o" cx="0" cy="0" r="1" gradientUnits="userSpaceOnUse" gradientTransform="matrix(9.24615 0 0 9.17624 47.16 44.06)"><stop offset=".07" stop-color="#F99E96"/><stop offset=".71" stop-color="#F78F98"/><stop offset="1" stop-color="#F68699"/></radialGradient><radialGradient id="p" cx="0" cy="0" r="1" gradientUnits="userSpaceOnUse" gradientTransform="matrix(9.91827 0 0 9.84306 78.63 33.83)"><stop offset=".07" stop-color="#F99E96"/><stop offset=".71" stop-color="#F78F98"/><stop offset="1" stop-color="#F68699"/></radialGradient><radialGradient id="q" cx="0" cy="0" r="1" gradientUnits="userSpaceOnUse" gradientTransform="matrix(30.7848 0 0 30.552 47.81 19.29)"><stop offset=".07" stop-color="#F99E96"/><stop offset=".71" stop-color="#F78F98"/><stop offset="1" stop-color="#F68699"/></radialGradient><radialGradient id="r" cx="0" cy="0" r="1" gradientUnits="userSpaceOnUse" gradientTransform="matrix(30.7852 0 0 30.5521 47.81 19.29)"><stop offset=".07" stop-color="#F99E96"/><stop offset=".71" stop-color="#F78F98"/><stop offset="1" stop-color="#F68699"/></radialGradient><linearGradient id="a" x1="27.49" y1="41.95" x2="115.23" y2="41.95" gradientUnits="userSpaceOnUse"><stop offset=".07" stop-color="#97C1FB"/><stop offset=".63" stop-color="#94B2FB"/><stop offset="1" stop-color="#91A5FB"/></linearGradient><linearGradient id="b" x1="19.25" y1="41.95" x2="106.99" y2="41.95" gradientUnits="userSpaceOnUse"><stop offset=".07" stop-color="#97C1FB"/><stop offset=".63" stop-color="#94B2FB"/><stop offset="1" stop-color="#91A5FB"/></linearGradient></defs></svg>