<svg width="404" height="317" viewBox="0 0 404 317" fill="none" xmlns="http://www.w3.org/2000/svg">
<g clip-path="url(#clip0_312_672)">
<path d="M122.287 122.231C120.125 119.434 117.07 116.846 116.876 113.394C116.699 110.228 119.063 107.085 118.066 104.056C117.3 101.728 114.77 100.323 112.299 99.5786C107.568 98.1745 102.504 98.3691 97.895 100.132L98.1452 99.9561C95.3319 98.9555 92.0435 99.9885 89.8301 101.902C87.6165 103.815 86.3011 106.467 85.2805 109.125C84.2596 111.782 83.4687 114.537 82.0505 117.028C80.632 119.52 78.4605 121.786 75.5953 122.647C76.5545 124.557 79.5529 125.213 81.3115 123.896C81.7608 123.532 82.1646 123.115 82.5143 122.655C83.6871 121.23 84.86 119.806 86.033 118.382C87.2399 120.526 85.4369 123.484 86.9204 125.468C87.6853 126.491 89.0824 126.88 90.3799 127.158C100.521 129.319 111.041 128.929 120.994 126.024C121.794 125.789 122.677 125.465 123.008 124.742C123.392 123.907 122.856 122.966 122.287 122.231Z" fill="#2F2E41"/>
<path d="M151.042 133.147C150.979 133.425 150.937 133.707 150.919 133.992L128.753 146.76L123.365 143.663L117.622 151.171L126.626 157.579C127.353 158.097 128.229 158.365 129.122 158.343C130.015 158.321 130.877 158.011 131.579 157.458L154.435 139.454C155.467 139.835 156.59 139.894 157.656 139.622C158.721 139.35 159.679 138.761 160.401 137.932C161.123 137.104 161.575 136.076 161.698 134.984C161.821 133.893 161.607 132.79 161.087 131.822C160.566 130.855 159.763 130.069 158.784 129.568C157.805 129.067 156.697 128.876 155.606 129.02C154.516 129.164 153.495 129.636 152.68 130.373C151.864 131.11 151.293 132.077 151.042 133.147H151.042Z" fill="#FFB7B7"/>
<path d="M128.012 147.364L120.848 156.635C120.644 156.899 120.386 157.116 120.091 157.271C119.795 157.426 119.47 157.516 119.137 157.534C118.804 157.552 118.47 157.498 118.16 157.376C117.849 157.255 117.569 157.067 117.337 156.827L109.227 148.418C107.881 147.369 107.007 145.83 106.796 144.139C106.585 142.447 107.054 140.741 108.101 139.394C109.148 138.047 110.687 137.17 112.381 136.955C114.074 136.74 115.784 137.204 117.136 138.246L127.307 143.925C127.599 144.088 127.851 144.311 128.048 144.58C128.245 144.849 128.382 145.157 128.448 145.484C128.515 145.81 128.511 146.147 128.436 146.472C128.36 146.796 128.216 147.101 128.012 147.364H128.012Z" fill="#CCEEEF"/>
<path d="M118.153 308.898L124.479 308.897L127.488 284.534L118.151 284.534L118.153 308.898Z" fill="#FFB7B7"/>
<path d="M116.539 306.835L128.997 306.835H128.998C131.103 306.835 133.122 307.67 134.611 309.157C136.1 310.644 136.937 312.66 136.937 314.762V315.02L116.539 315.021L116.539 306.835Z" fill="#2F2E41"/>
<path d="M74.8094 308.898L81.1356 308.897L84.1449 284.534L74.8085 284.534L74.8094 308.898Z" fill="#FFB7B7"/>
<path d="M73.1959 306.835L85.654 306.835H85.6545C87.76 306.835 89.7793 307.67 91.2682 309.157C92.7571 310.644 93.5936 312.66 93.5937 314.762V315.02L73.1963 315.021L73.1959 306.835Z" fill="#2F2E41"/>
<path d="M114.354 118.787C115.013 112.794 110.681 107.402 104.679 106.744C98.6773 106.086 93.2777 110.411 92.6189 116.404C91.96 122.397 96.2914 127.789 102.293 128.447C108.295 129.104 113.695 124.779 114.354 118.787Z" fill="#FFB7B7"/>
<path d="M109.883 133.96L116.324 137.146C116.324 137.146 123.52 149.634 119.392 161.484C117.388 167.237 123.032 185.577 123.032 185.577C123.032 185.577 131.776 268.649 131.804 294.288C120.94 295.955 110.62 298.016 110.104 292.864C109.588 287.712 103.94 226.794 103.94 226.794C103.94 226.794 96.1727 294.41 89.9808 295.44C83.7889 296.471 71.4052 294.925 71.4052 294.925C71.4052 294.925 81.2366 195.881 87.9444 189.698L88.9764 184.546L88.9488 138.299L96.6771 134.616L109.883 133.96Z" fill="#2F2E41"/>
<path d="M86.8427 204.169C87.5555 203.784 88.175 203.248 88.6576 202.598C89.1402 201.948 89.4743 201.2 89.6362 200.407C89.7981 199.614 89.7839 198.796 89.5947 198.009C89.4055 197.222 89.0458 196.486 88.5409 195.853L96.0314 146L86.2453 145.531L80.4063 195.178C79.3976 196.095 78.7609 197.35 78.6168 198.705C78.4728 200.06 78.8315 201.42 79.6249 202.528C80.4183 203.636 81.5912 204.416 82.9215 204.718C84.2518 205.021 85.647 204.825 86.8427 204.169Z" fill="#FFB7B7"/>
<path d="M95.8188 158.491L84.1149 157.753C83.7819 157.732 83.4573 157.64 83.1633 157.482C82.8693 157.325 82.6127 157.106 82.4111 156.841C82.2095 156.575 82.0675 156.269 81.9949 155.944C81.9223 155.619 81.9207 155.282 81.9903 154.956L84.429 143.539C84.546 141.838 85.3337 140.253 86.6194 139.131C87.9051 138.009 89.5839 137.443 91.2875 137.555C92.9912 137.667 94.5806 138.45 95.7074 139.731C96.8341 141.012 97.4061 142.686 97.2979 144.388L98.2788 155.983C98.3068 156.315 98.2628 156.649 98.1498 156.963C98.0368 157.276 97.8574 157.561 97.624 157.8C97.3905 158.038 97.1084 158.223 96.7969 158.342C96.4854 158.461 96.1518 158.512 95.8187 158.491H95.8188Z" fill="#CCEEEF"/>
<path d="M114.945 110.499C114.519 108.57 113.135 106.971 111.541 105.8C108.913 103.87 105.69 102.921 102.434 103.119C99.1779 103.316 96.0942 104.648 93.72 106.882C92.3934 108.052 91.437 109.583 90.9677 111.287C90.7439 112.139 90.7319 113.032 90.9329 113.889C91.1339 114.747 91.5417 115.542 92.1209 116.206L92.3393 116.343C92.1413 115.504 92.7938 114.666 93.5733 114.296C94.3841 113.999 95.2304 113.809 96.0906 113.732C97.392 113.487 98.6254 112.965 99.7076 112.203C100.79 111.44 101.695 110.455 102.363 109.313C102.858 110.718 103.649 112.001 104.682 113.076C105.715 114.151 106.967 114.993 108.353 115.545C109.798 116.109 113.766 116.885 115.142 116.169C116.897 115.255 115.371 112.429 114.945 110.499Z" fill="#2F2E41"/>
<path d="M34.5018 293.848C36.3935 294.512 38.4245 294.678 40.3992 294.331C42.3739 293.983 44.2258 293.134 45.7764 291.865C49.7253 288.555 50.9637 283.104 51.9708 278.056L54.9505 263.123L48.7123 267.412C44.2258 270.496 39.6385 273.679 36.5324 278.147C33.4263 282.615 32.0712 288.714 34.5661 293.548" fill="#E6E6E6"/>
<path d="M35.4651 312.967C34.6799 307.255 33.872 301.469 34.4241 295.696C34.9134 290.569 36.48 285.562 39.6694 281.455C41.3623 279.279 43.4223 277.415 45.7567 275.947C46.3653 275.563 46.9256 276.526 46.3196 276.908C42.2803 279.457 39.156 283.221 37.3972 287.657C35.4547 292.59 35.1428 297.968 35.4774 303.208C35.6796 306.377 36.1094 309.526 36.541 312.67C36.5751 312.812 36.5538 312.962 36.4815 313.089C36.4091 313.216 36.2912 313.311 36.1514 313.355C36.0088 313.393 35.8568 313.374 35.7284 313.301C35.6 313.228 35.5055 313.108 35.4655 312.966L35.4651 312.967Z" fill="#F2F2F2"/>
<path d="M41.1167 303.801C41.9279 305.033 43.043 306.035 44.3547 306.711C45.6664 307.387 47.1304 307.715 48.6056 307.662C52.3977 307.482 55.5577 304.841 58.4021 302.332L66.817 294.913L61.2479 294.647C57.2429 294.456 53.1345 294.276 49.3198 295.511C45.5051 296.745 41.987 299.712 41.2896 303.655" fill="#E6E6E6"/>
<path d="M33.2456 316.25C37.0257 309.572 41.41 302.149 49.2446 299.777C51.4229 299.119 53.7068 298.884 55.9736 299.083C56.6882 299.145 56.5097 300.244 55.7967 300.183C51.9969 299.868 48.2045 300.87 45.0578 303.02C42.0298 305.078 39.672 307.939 37.6767 310.973C36.4543 312.832 35.3595 314.769 34.2646 316.704C33.9148 317.322 32.8917 316.876 33.2456 316.25Z" fill="#F2F2F2"/>
<path d="M288.685 192.781C281.592 183.303 268.609 181.015 262.158 185.829C255.706 190.643 254.224 203.723 261.318 213.201C267.884 221.975 279.779 224.368 286.331 221.081C286.31 221.183 286.309 221.289 286.328 221.392L286.697 223.216C286.725 223.355 286.788 223.484 286.881 223.592C286.973 223.699 287.092 223.782 287.225 223.831C287.358 223.88 287.502 223.894 287.642 223.873C287.782 223.851 287.915 223.794 288.027 223.706L291.155 221.266C291.267 221.179 291.354 221.064 291.41 220.934C291.465 220.803 291.486 220.66 291.47 220.519C291.455 220.378 291.403 220.244 291.321 220.128C291.239 220.013 291.128 219.92 291 219.859L289.317 219.06C289.258 219.033 289.196 219.014 289.132 219.002C294.182 213.671 295.265 201.574 288.685 192.781Z" fill="#CCCCCC"/>
<path d="M273.169 189.203C276.639 189.753 279.765 191.613 281.901 194.398C284.038 197.183 285.022 200.68 284.651 204.169C284.574 204.968 285.825 204.963 285.901 204.169C286.258 200.409 285.179 196.653 282.88 193.654C280.58 190.655 277.23 188.635 273.501 188C272.715 187.866 272.376 189.069 273.169 189.203Z" fill="white"/>
<path d="M300.247 28.938C306.449 18.8552 303.783 5.96358 296.92 1.75518C290.057 -2.45322 277.337 1.00271 271.135 11.0856C265.395 20.4185 267.561 32.3403 273.04 37.206C272.937 37.2243 272.838 37.2621 272.749 37.3175L271.188 38.3338C271.069 38.4113 270.972 38.5178 270.906 38.6433C270.84 38.7688 270.807 38.9091 270.811 39.0509C270.814 39.1927 270.854 39.3312 270.926 39.4534C270.998 39.5756 271.1 39.6773 271.223 39.7489L274.649 41.7502C274.772 41.8218 274.911 41.861 275.053 41.8639C275.195 41.8669 275.335 41.8335 275.461 41.767C275.586 41.7006 275.692 41.6031 275.77 41.4841C275.847 41.365 275.892 41.2282 275.902 41.0867L276.024 39.2302C276.027 39.1654 276.022 39.1006 276.009 39.0369C282.836 41.7542 294.494 38.2912 300.247 28.938Z" fill="#CCCCCC"/>
<path d="M297.847 13.2188C298.616 16.6418 298.04 20.2291 296.237 23.2402C294.435 26.2513 291.543 28.4564 288.159 29.4003C287.387 29.6247 287.854 30.7831 288.621 30.5601C292.252 29.5033 295.349 27.1146 297.291 23.8732C299.233 20.6318 299.875 16.7773 299.09 13.0827C298.923 12.3033 297.679 12.4337 297.847 13.2188Z" fill="white"/>
<path d="M190.343 76.7786C189.824 64.9574 180.384 55.769 172.338 56.1209C164.292 56.4728 155.693 66.4502 156.212 78.2714C156.692 89.2134 165.174 97.8778 172.442 98.8442C172.367 98.9172 172.306 99.0038 172.264 99.0995L171.541 100.814C171.486 100.945 171.465 101.088 171.481 101.229C171.496 101.37 171.548 101.504 171.63 101.62C171.713 101.735 171.823 101.828 171.951 101.889C172.08 101.949 172.222 101.977 172.363 101.967L176.324 101.709C176.466 101.7 176.603 101.654 176.722 101.577C176.842 101.5 176.939 101.394 177.006 101.269C177.073 101.144 177.106 101.004 177.103 100.862C177.1 100.72 177.061 100.581 176.99 100.459L176.049 98.8526C176.015 98.7974 175.975 98.7463 175.929 98.7005C183.109 97.1332 190.824 87.7444 190.343 76.7786Z" fill="#CCEEEF"/>
<path d="M179.537 65.099C182.094 67.5044 183.629 70.7984 183.825 74.301C184.021 77.8037 182.862 81.2478 180.588 83.9222C180.075 84.5398 181.111 85.2384 181.621 84.6248C184.037 81.7183 185.263 78.0074 185.053 74.2362C184.843 70.4651 183.213 66.9126 180.49 64.2912C179.915 63.7385 178.958 64.5423 179.537 65.099Z" fill="white"/>
<path d="M227.235 155.199C224.133 155.004 221.122 154.078 218.449 152.497C215.775 150.915 213.515 148.724 211.853 146.102C211.387 145.358 210.78 144.542 211.102 143.627C211.214 143.276 211.442 142.973 211.749 142.769C212.056 142.564 212.423 142.47 212.791 142.501C213.741 142.616 214.354 143.544 214.471 144.434C214.604 145.443 213.891 146.235 213.011 146.61C210.86 147.526 208.69 146.111 206.938 144.981C202.945 142.406 198.554 140.077 193.717 139.784C189.241 139.512 184.441 141.265 181.952 145.14C181.516 145.818 182.597 146.445 183.031 145.77C185.5 141.927 190.491 140.546 194.831 141.14C197.417 141.548 199.915 142.394 202.215 143.643C203.408 144.261 204.564 144.947 205.698 145.667C206.777 146.418 207.92 147.073 209.114 147.623C211.107 148.44 213.744 148.376 215.135 146.495C216.434 144.739 215.43 141.817 213.259 141.324C212.783 141.23 212.291 141.256 211.827 141.399C211.363 141.542 210.942 141.797 210.601 142.143C210.26 142.488 210.011 142.913 209.875 143.378C209.739 143.843 209.721 144.335 209.822 144.809C210.039 145.843 210.818 146.854 211.421 147.699C213.234 150.245 215.596 152.353 218.333 153.867C221.069 155.381 224.111 156.263 227.235 156.447C228.039 156.487 228.037 155.239 227.235 155.199L227.235 155.199Z" fill="#CCCCCC"/>
<path d="M347.273 69.2122C350.695 67.6226 354.896 67.1015 358.378 68.5786C361.86 70.0557 364.234 73.8417 363.108 77.1923C362.598 78.7114 361.435 80.2054 361.888 81.7396C362.237 82.9206 363.453 83.7002 364.647 84.2546C365.842 84.809 367.148 85.2751 368.012 86.2101C368.876 87.1451 369.056 88.7547 367.977 89.4798C367.621 89.7187 367.177 89.832 366.832 90.0838C366.539 90.3221 366.326 90.6461 366.226 91.0105C366.125 91.3749 366.141 91.7615 366.271 92.1166C366.558 92.8309 367.033 93.4548 367.646 93.9223C368.871 94.9772 370.489 96.1845 370.109 97.6819C369.968 98.0821 369.732 98.4424 369.422 98.7322C369.112 99.0221 368.736 99.2329 368.326 99.3468C367.476 99.5916 366.594 99.7078 365.71 99.6916L329.563 100.829C328.369 100.918 327.17 100.851 325.994 100.63C325.422 100.525 324.878 100.305 324.396 99.9813C323.914 99.6578 323.504 99.2384 323.191 98.7495C322.499 97.4701 322.953 95.8942 323.808 94.6995C324.663 93.5049 325.873 92.5625 326.872 91.4655C327.872 90.3685 328.69 88.9992 328.514 87.5814C328.373 86.4464 327.623 85.4655 327.085 84.4343C326.547 83.4031 326.234 82.1144 326.931 81.1657C327.913 79.8289 330.271 79.9498 331.388 78.7041C332.231 77.764 332.068 76.4107 332.152 75.1984C332.353 72.2825 334.375 69.5286 337.253 68.2498C338.717 67.6224 340.309 67.3516 341.898 67.4597C343.487 67.5678 345.027 68.0516 346.392 68.8712L347.273 69.2122Z" fill="#2F2E41"/>
<path d="M391.293 213.515V219.418L368.492 222.226L368.493 213.514L391.293 213.515Z" fill="#9E616A"/>
<path d="M397.024 212.01L397.023 231.042H396.782C394.814 231.042 392.927 230.262 391.536 228.873C390.145 227.483 389.363 225.599 389.363 223.635V223.634L389.364 212.01L397.024 212.01Z" fill="#2F2E41"/>
<path d="M363.107 223.556L361.656 229.278L338.862 226.411L341.004 217.966L363.107 223.556Z" fill="#9E616A"/>
<path d="M369.032 223.501L364.352 241.951L364.118 241.892C362.211 241.41 360.574 240.19 359.567 238.503C358.559 236.815 358.265 234.797 358.748 232.892L358.748 232.892L361.606 221.623L369.032 223.501Z" fill="#2F2E41"/>
<path d="M357.285 157.363L358.516 158.643C358.516 158.643 366.55 164.933 360.606 181.503L350.884 209.471L383.473 210.74L382.775 223.52C382.775 223.52 335.513 226.145 335.926 218.367C336.34 210.59 338.084 181.793 338.084 181.793L328.265 173.92L330.632 160.603L357.285 157.363Z" fill="#2F2E41"/>
<path d="M332.04 170.055L328.265 173.92L315.606 208.664C315.606 208.664 313.678 217.33 318.017 219.256C322.357 221.182 350.279 231.955 350.279 231.955L353.131 221.708L331.616 208.814L341.644 195.665L343.153 174.94L332.04 170.055Z" fill="#2F2E41"/>
<path d="M332.241 108.762L364.371 102.347L365.07 119.948L356.747 137.661L358.517 158.643L329.721 163.667L330.623 136.077C330.623 136.077 322.889 125.184 327.445 114.205L332.241 108.762Z" fill="#E4E4E4"/>
<path d="M403.886 67.007C404.047 67.7458 404.044 68.511 403.877 69.2484C403.71 69.9859 403.383 70.6778 402.919 71.2755C402.455 71.8731 401.865 72.3619 401.192 72.7074C400.518 73.0529 399.777 73.2467 399.02 73.2752L368.209 108.95L361.046 100.269L393.585 67.9318C393.621 66.6593 394.123 65.4443 394.997 64.517C395.87 63.5897 397.054 63.0145 398.324 62.9005C399.594 62.7865 400.862 63.1416 401.887 63.8985C402.912 64.6553 403.623 65.7613 403.886 67.007Z" fill="#9E616A"/>
<path d="M374.918 105.057C374.925 105.391 374.86 105.721 374.728 106.027C374.595 106.333 374.398 106.607 374.15 106.83L365.486 114.617C364.399 115.932 362.834 116.762 361.134 116.926C359.435 117.09 357.739 116.574 356.42 115.492C355.101 114.41 354.265 112.85 354.095 111.153C353.926 109.457 354.438 107.762 355.517 106.442L361.565 96.4469C361.738 96.1617 361.97 95.9169 362.246 95.7294C362.521 95.5418 362.835 95.4158 363.164 95.3599C363.493 95.3041 363.83 95.3197 364.152 95.4057C364.475 95.4918 364.775 95.6462 365.032 95.8584L374.075 103.319C374.333 103.531 374.541 103.796 374.686 104.096C374.832 104.396 374.911 104.724 374.918 105.057Z" fill="#E4E4E4"/>
<path d="M281.861 150.845C281.813 150.09 281.931 149.334 282.207 148.63C282.483 147.926 282.911 147.291 283.459 146.77C284.008 146.248 284.664 145.853 285.382 145.613C286.1 145.372 286.862 145.292 287.614 145.377L323.437 114.722L329.215 124.378L292.185 151.474C291.958 152.727 291.279 153.853 290.276 154.639C289.273 155.425 288.016 155.816 286.743 155.738C285.471 155.661 284.271 155.12 283.371 154.218C282.471 153.316 281.934 152.116 281.861 150.845V150.845Z" fill="#9E616A"/>
<path d="M316.22 117.566C316.263 117.235 316.376 116.918 316.553 116.635C316.73 116.353 316.966 116.112 317.245 115.928L326.981 109.527C328.254 108.39 329.926 107.804 331.631 107.896C333.336 107.989 334.935 108.753 336.077 110.02C337.219 111.288 337.811 112.956 337.723 114.659C337.635 116.361 336.875 117.96 335.608 119.104L328.127 128.079C327.914 128.336 327.648 128.543 327.347 128.687C327.046 128.831 326.717 128.909 326.384 128.915C326.05 128.921 325.719 128.855 325.413 128.721C325.107 128.588 324.834 128.39 324.611 128.142L316.792 119.411C316.569 119.163 316.403 118.869 316.304 118.551C316.205 118.232 316.177 117.896 316.22 117.566Z" fill="#E4E4E4"/>
<path d="M345.935 100.549C352.476 100.549 357.778 95.2546 357.778 88.7238C357.778 82.193 352.476 76.8987 345.935 76.8987C339.395 76.8987 334.092 82.193 334.092 88.7238C334.092 95.2546 339.395 100.549 345.935 100.549Z" fill="#9E616A"/>
<path d="M358.051 87.0426C354.311 86.7428 351.206 83.0122 351.595 79.2859C351.638 80.8218 351.115 82.3202 350.125 83.4961C349.134 84.6719 347.745 85.4432 346.223 85.6632C344.507 85.8519 342.626 85.3337 341.133 86.1978C339.479 87.155 338.95 89.4793 337.227 90.306C335.562 91.1048 333.448 90.0154 332.625 88.3642C331.803 86.7129 332.005 84.7291 332.55 82.967C333.327 80.4541 334.742 78.1849 336.658 76.38C338.574 74.5751 340.925 73.296 343.483 72.6672C346.04 72.0383 348.717 72.081 351.253 72.7912C353.79 73.5014 356.098 74.8549 357.955 76.72C359.528 78.2994 360.777 80.3124 360.979 82.5304C361.182 84.7483 360.151 87.1549 358.156 88.1513L358.051 87.0426Z" fill="#2F2E41"/>
<path d="M184.192 315.788H0.482178C0.354296 315.788 0.231659 315.738 0.141234 315.647C0.0508077 315.557 0 315.435 0 315.307C0 315.179 0.0508077 315.057 0.141234 314.966C0.231659 314.876 0.354296 314.825 0.482178 314.825H184.192C184.32 314.825 184.442 314.876 184.533 314.966C184.623 315.057 184.674 315.179 184.674 315.307C184.674 315.435 184.623 315.557 184.533 315.647C184.442 315.738 184.32 315.788 184.192 315.788Z" fill="#CACACA"/>
</g>
<defs>
<clipPath id="clip0_312_672">
<rect width="404" height="317" fill="white"/>
</clipPath>
</defs>
</svg>
