<svg width="21" height="27" fill="#none" xmlns="http://www.w3.org/2000/svg"><path fill-rule="evenodd" clip-rule="evenodd" d="M2.06 8.4c0-4.02 3.4-8.4 8.44-8.4 5.04 0 8.44 4.38 8.44 8.4 0 1.04.11 1.77.28 2.32a7.1 7.1 0 0 0 .7 1.6c.23.42.5.9.7 1.5a7.4 7.4 0 0 1 .38 2.55 5.44 5.44 0 0 1-.9 2.74 4.96 4.96 0 0 1-2.17 1.7c-1.74.76-4.23.98-7.43.98-3.2 0-5.68-.22-7.43-.97a4.95 4.95 0 0 1-2.16-1.7A5.45 5.45 0 0 1 0 16.29a7.4 7.4 0 0 1 1.15-4.11c.25-.47.47-.9.63-1.46.17-.55.28-1.28.28-2.31Zm8.44-6.52a6.77 6.77 0 0 0-6.73 6.53c0 1.2-.14 2.12-.37 2.9a9.02 9.02 0 0 1-.79 1.83l-.07.14c-.24.44-.43.78-.57 1.2-.15.44-.26.99-.27 1.77.07.75.26 1.3.55 1.72.3.43.76.8 1.44 1.1 1.41.6 3.6.83 6.81.83 3.2 0 5.4-.23 6.8-.84.7-.3 1.15-.67 1.45-1.1.29-.42.48-.96.55-1.71 0-.78-.12-1.33-.27-1.77-.14-.42-.33-.76-.57-1.2l-.07-.14a9.02 9.02 0 0 1-.8-1.84 10.2 10.2 0 0 1-.36-2.9c0-2.94-2.59-6.52-6.73-6.52ZM7.12 23.92a.8.8 0 0 1 1.2.07c1.22 1.5 3.05 1.5 4.26 0a.8.8 0 0 1 1.2-.07c.35.35.38.95.06 1.33-1.88 2.32-4.88 2.35-6.79 0-.31-.38-.28-.98.07-1.33Z" fill="#130F26"/></svg>