<svg width="404" height="317" fill="none" xmlns="http://www.w3.org/2000/svg"><g clip-path="url(#a)"><path d="M122.29 122.23c-2.17-2.8-5.22-5.38-5.41-8.84-.18-3.16 2.18-6.3 1.19-9.33-.77-2.33-3.3-3.74-5.77-4.48-4.73-1.4-9.8-1.21-14.4.55l.25-.17c-2.82-1-6.1.03-8.32 1.94-2.21 1.91-3.53 4.57-4.55 7.22-1.02 2.66-1.81 5.42-3.23 7.9-1.42 2.5-3.59 4.77-6.45 5.63.95 1.9 3.95 2.56 5.71 1.25.45-.37.85-.79 1.2-1.25l3.52-4.27c1.21 2.15-.6 5.1.89 7.09.77 1.02 2.16 1.41 3.46 1.69a62.66 62.66 0 0 0 30.61-1.14c.8-.23 1.69-.55 2.02-1.28.38-.83-.15-1.77-.72-2.5Z" fill="#2F2E41"/><path d="M151.04 133.15c-.06.28-.1.56-.12.84l-22.17 12.77-5.39-3.1-5.74 7.51 9 6.4a4.13 4.13 0 0 0 4.96-.11l22.85-18a5.43 5.43 0 0 0 7.27-4.48 5.4 5.4 0 0 0-10.66-1.83Z" fill="#FFB7B7"/><path d="m128.01 147.36-7.16 9.27a2.32 2.32 0 0 1-3.51.2l-8.11-8.41a6.44 6.44 0 0 1 7.9-10.17l10.18 5.68a2.32 2.32 0 0 1 .7 3.43Z" fill="#CCEEEF"/><path d="M118.15 308.9h6.33l3-24.37h-9.33v24.37Z" fill="#FFB7B7"/><path d="M116.54 306.83H129a7.94 7.94 0 0 1 7.94 7.93v.26h-20.4v-8.19Z" fill="#2F2E41"/><path d="M74.8 308.9h6.34l3-24.37h-9.33v24.37Z" fill="#FFB7B7"/><path d="M73.2 306.83h12.45a7.94 7.94 0 0 1 7.94 7.93v.26H73.2v-8.19Z" fill="#2F2E41"/><path d="M114.35 118.79a10.92 10.92 0 1 0-21.7-2.37 10.92 10.92 0 0 0 21.7 2.37Z" fill="#FFB7B7"/><path d="m109.88 133.96 6.44 3.19s7.2 12.48 3.07 24.33c-2 5.76 3.64 24.1 3.64 24.1s8.75 83.07 8.77 108.7c-10.86 1.68-21.18 3.74-21.7-1.42-.51-5.15-6.16-66.07-6.16-66.07s-7.77 67.62-13.96 68.65c-6.2 1.03-18.57-.51-18.57-.51s9.83-99.05 16.53-105.23l1.04-5.15-.03-46.25 7.73-3.68 13.2-.66Z" fill="#2F2E41"/><path d="M86.84 204.17a5.54 5.54 0 0 0 1.7-8.32l7.5-49.85-9.8-.47-5.83 49.65a5.56 5.56 0 0 0 6.43 8.99Z" fill="#FFB7B7"/><path d="m95.82 158.5-11.7-.75a2.33 2.33 0 0 1-2.13-1.8 2.31 2.31 0 0 1 0-1l2.44-11.41a6.44 6.44 0 0 1 12.87.85l.98 11.6a2.32 2.32 0 0 1-2.46 2.5Z" fill="#CCEEEF"/><path d="M114.94 110.5c-.42-1.93-1.8-3.53-3.4-4.7a13.96 13.96 0 0 0-17.82 1.08 9.1 9.1 0 0 0-2.75 4.4 5.4 5.4 0 0 0 1.15 4.93l.22.13c-.2-.84.45-1.67 1.23-2.04.81-.3 1.66-.5 2.52-.57a9.25 9.25 0 0 0 6.27-4.42 10.43 10.43 0 0 0 6 6.23c1.44.57 5.4 1.34 6.78.63 1.76-.92.23-3.74-.2-5.67Z" fill="#2F2E41"/><path d="M34.5 293.85a11.7 11.7 0 0 0 11.28-1.99c3.95-3.3 5.18-8.76 6.2-13.8l2.97-14.94-6.24 4.3c-4.48 3.08-9.07 6.26-12.18 10.73-3.1 4.46-4.46 10.56-1.96 15.4" fill="#E6E6E6"/><path d="M35.47 312.97c-.79-5.72-1.6-11.5-1.05-17.27.5-5.13 2.06-10.14 5.25-14.25a23.7 23.7 0 0 1 6.09-5.5c.6-.39 1.17.58.56.96a22.53 22.53 0 0 0-8.92 10.75c-1.95 4.93-2.26 10.3-1.92 15.55a131 131 0 0 0 1.06 9.46.58.58 0 0 1-.39.69.56.56 0 0 1-.68-.4Z" fill="#F2F2F2"/><path d="M41.12 303.8a8.59 8.59 0 0 0 7.49 3.86c3.79-.18 6.95-2.82 9.8-5.33l8.4-7.42-5.56-.26c-4-.2-8.12-.37-11.93.86-3.81 1.24-7.33 4.2-8.03 8.14" fill="#E6E6E6"/><path d="M33.25 316.25c3.78-6.68 8.16-14.1 16-16.47 2.17-.66 4.46-.9 6.72-.7.72.06.54 1.16-.17 1.1-3.8-.31-7.6.69-10.74 2.84-3.03 2.06-5.39 4.92-7.38 7.95-1.23 1.86-2.32 3.8-3.42 5.73-.35.62-1.37.18-1.01-.45Z" fill="#F2F2F2"/><path d="M288.69 192.78c-7.1-9.48-20.08-11.76-26.53-6.95-6.45 4.81-7.94 17.9-.84 27.37 6.56 8.78 18.46 11.17 25.01 7.88-.02.1-.02.2 0 .31l.37 1.83a.82.82 0 0 0 .53.61.83.83 0 0 0 .8-.12l3.13-2.44a.84.84 0 0 0 .31-.75.83.83 0 0 0-.47-.66l-1.68-.8a.8.8 0 0 0-.19-.06c5.05-5.33 6.13-17.43-.44-26.22Z" fill="#CCC"/><path d="M273.17 189.2a13.7 13.7 0 0 1 11.48 14.97c-.08.8 1.18.8 1.25 0A14.96 14.96 0 0 0 273.5 188c-.79-.13-1.12 1.07-.33 1.2Z" fill="#fff"/><path d="M300.25 28.94c6.2-10.08 3.53-22.98-3.33-27.18-6.86-4.21-19.58-.76-25.79 9.33-5.74 9.33-3.57 21.25 1.91 26.12-.1.01-.2.05-.3.1l-1.55 1.02a.83.83 0 0 0 .03 1.42l3.43 2a.84.84 0 0 0 1.25-.66l.12-1.86-.01-.2c6.83 2.72 18.48-.74 24.24-10.1Z" fill="#CCC"/><path d="M297.85 13.22a13.67 13.67 0 0 1-9.7 16.18c-.76.22-.3 1.38.47 1.16a14.99 14.99 0 0 0 10.47-17.48c-.17-.78-1.41-.65-1.24.14Z" fill="#fff"/><path d="M190.34 76.78c-.52-11.82-9.96-21.01-18-20.66-8.05.35-16.65 10.33-16.13 22.15.48 10.94 8.96 19.6 16.23 20.57a.81.81 0 0 0-.18.26l-.72 1.71a.83.83 0 0 0 .82 1.16l3.96-.26a.83.83 0 0 0 .78-.85.84.84 0 0 0-.11-.4l-.94-1.6a.82.82 0 0 0-.12-.16c7.18-1.57 14.9-10.96 14.41-21.92Z" fill="#CCEEEF"/><path d="M179.54 65.1a13.68 13.68 0 0 1 1.05 18.82c-.52.62.52 1.32 1.03.7a14.95 14.95 0 0 0-1.13-20.33c-.58-.55-1.53.25-.95.8Z" fill="#fff"/><path d="M227.24 155.2a19.68 19.68 0 0 1-15.39-9.1c-.46-.74-1.07-1.56-.75-2.47a1.63 1.63 0 0 1 1.7-1.13c.94.12 1.55 1.04 1.67 1.93.13 1.01-.58 1.8-1.46 2.18-2.15.92-4.32-.5-6.07-1.63-4-2.57-8.39-4.9-13.22-5.2-4.48-.27-9.28 1.48-11.77 5.36-.43.68.65 1.3 1.08.63 2.47-3.84 7.46-5.22 11.8-4.63 2.59.4 5.08 1.25 7.38 2.5 1.2.62 2.35 1.3 3.49 2.03 1.08.75 2.22 1.4 3.41 1.95 2 .82 4.63.76 6.02-1.13 1.3-1.75.3-4.67-1.87-5.17a2.93 2.93 0 0 0-3.44 3.49c.22 1.03 1 2.04 1.6 2.89a20.91 20.91 0 0 0 15.82 8.75c.8.04.8-1.21 0-1.25Z" fill="#CCC"/><path d="M347.27 69.21c3.43-1.59 7.63-2.1 11.1-.63 3.49 1.48 5.86 5.26 4.74 8.61-.51 1.52-1.68 3.02-1.22 4.55.35 1.18 1.56 1.96 2.76 2.51 1.2.56 2.5 1.03 3.36 1.96.87.94 1.05 2.54-.03 3.27-.36.24-.8.35-1.15.6a1.82 1.82 0 0 0-.56 2.04c.29.71.76 1.33 1.38 1.8 1.22 1.06 2.84 2.26 2.46 3.76a2.64 2.64 0 0 1-1.78 1.67c-.85.24-1.74.36-2.62.34l-36.15 1.14c-1.2.09-2.39.02-3.57-.2a4.24 4.24 0 0 1-2.8-1.88c-.7-1.28-.24-2.86.62-4.05.85-1.2 2.06-2.14 3.06-3.23 1-1.1 1.82-2.47 1.64-3.89-.14-1.13-.89-2.11-1.43-3.15-.53-1.03-.85-2.32-.15-3.26.98-1.34 3.34-1.22 4.46-2.47.84-.94.68-2.29.76-3.5a8.5 8.5 0 0 1 5.1-6.95 10.06 10.06 0 0 1 9.14.62l.88.34Z" fill="#2F2E41"/><path d="M391.3 213.51v5.9l-22.8 2.82v-8.72h22.8Z" fill="#9E616A"/><path d="M397.02 212.01v19.03h-.24a7.42 7.42 0 0 1-7.42-7.4V212h7.66Z" fill="#2F2E41"/><path d="m363.1 223.56-1.44 5.72-22.8-2.87 2.14-8.44 22.1 5.59Z" fill="#9E616A"/><path d="m369.03 223.5-4.68 18.45-.23-.06a7.42 7.42 0 0 1-5.37-9l2.86-11.27 7.42 1.88Z" fill="#2F2E41"/><path d="m357.29 157.36 1.23 1.28s8.03 6.3 2.09 22.86l-9.73 27.97 32.6 1.27-.7 12.78s-47.27 2.63-46.85-5.15c.41-7.78 2.15-36.58 2.15-36.58l-9.81-7.87 2.36-13.32 26.66-3.24Z" fill="#2F2E41"/><path d="m332.04 170.06-3.78 3.86-12.65 34.74s-1.93 8.67 2.4 10.6c4.35 1.92 32.27 12.7 32.27 12.7l2.85-10.25-21.51-12.9 10.02-13.15 1.51-20.72-11.11-4.88Z" fill="#2F2E41"/><path d="m332.24 108.76 32.13-6.41.7 17.6-8.32 17.71 1.77 20.98-28.8 5.03.9-27.6s-7.73-10.89-3.18-21.86l4.8-5.45Z" fill="#E4E4E4"/><path d="M403.89 67a5.17 5.17 0 0 1-4.87 6.28l-30.81 35.67-7.16-8.68 32.53-32.34a5.2 5.2 0 0 1 8.3-4.03 5.2 5.2 0 0 1 2 3.1Z" fill="#9E616A"/><path d="M374.92 105.06a2.33 2.33 0 0 1-.77 1.77l-8.66 7.79a6.45 6.45 0 0 1-9.97-8.18l6.05-10a2.33 2.33 0 0 1 3.46-.58l9.05 7.46a2.3 2.3 0 0 1 .84 1.74Z" fill="#E4E4E4"/><path d="M281.86 150.84a5.17 5.17 0 0 1 5.75-5.46l35.83-30.66 5.77 9.66-37.02 27.1a5.2 5.2 0 0 1-10.33-.63Z" fill="#9E616A"/><path d="M316.22 117.57a2.32 2.32 0 0 1 1.02-1.64l9.74-6.4a6.46 6.46 0 0 1 10.74 5.13 6.44 6.44 0 0 1-2.11 4.44l-7.48 8.98a2.3 2.3 0 0 1-2.72.64c-.3-.13-.58-.33-.8-.58l-7.82-8.73a2.32 2.32 0 0 1-.57-1.84Z" fill="#E4E4E4"/><path d="M345.94 100.55a11.83 11.83 0 1 0 .01-23.67 11.83 11.83 0 0 0-.01 23.67Z" fill="#9E616A"/><path d="M358.05 87.04a7.33 7.33 0 0 1-6.45-7.75 6.26 6.26 0 0 1-5.38 6.37c-1.71.2-3.6-.33-5.09.54-1.65.95-2.18 3.28-3.9 4.1-1.67.8-3.78-.28-4.6-1.94-.83-1.65-.63-3.63-.08-5.4a15.23 15.23 0 0 1 18.7-10.17c2.54.71 4.85 2.06 6.7 3.93 1.58 1.58 2.83 3.6 3.03 5.81.2 2.22-.83 4.63-2.82 5.62l-.1-1.1Z" fill="#2F2E41"/><path d="M184.2 315.79H.47a.48.48 0 0 1-.48-.48.48.48 0 0 1 .48-.49H184.2a.48.48 0 0 1 .48.49.48.48 0 0 1-.48.48Z" fill="#CACACA"/></g><defs><clipPath id="a"><path fill="#fff" d="M0 0h404v317H0z"/></clipPath></defs></svg>