<svg width="26" height="28" fill="none" xmlns="http://www.w3.org/2000/svg"><path fill-rule="evenodd" clip-rule="evenodd" d="M10.04 1.92a4.54 4.54 0 0 1 5.63 0l8.22 6.55c.88.68 1.4 1.71 1.42 2.82V22.2c0 2.7-2.2 4.86-4.9 4.86h-2.42a2.1 2.1 0 0 1-2.05-2.08v-3.85c0-.66-.55-1.21-1.23-1.21h-3.6c-.69 0-1.23.55-1.23 1.21v3.83c0 .07 0 .13-.03.2a2.1 2.1 0 0 1-2.1 1.9h-2.4C2.63 27.06.43 24.9.43 22.2V11.3c0-1.1.53-2.14 1.42-2.82l8.18-6.56ZM8.76 24.96v-3.83a2.35 2.35 0 0 1 2.34-2.34h3.6c1.3 0 2.36 1.05 2.36 2.34v3.85c0 .51.42.94.95.96h2.4c2.1 0 3.78-1.68 3.78-3.74V11.3a2.49 2.49 0 0 0-.98-1.94h-.01L14.97 2.8c-1.23-.98-3-.98-4.23 0L2.55 9.37a2.46 2.46 0 0 0-.99 1.94v10.9a3.76 3.76 0 0 0 3.78 3.73h2.4c.56 0 1-.44 1-.98h.02Z" fill="#130F26"/></svg>