<svg xmlns="http://www.w3.org/2000/svg" width="100" height="100" style="enable-background:new 0 0 20 20" xml:space="preserve"><path d="M76.5 286.88H19.12a19.13 19.13 0 0 0 0 38.25H76.5a19.13 19.13 0 0 0 0-38.25zM306 95.63a19.13 19.13 0 0 0 19.13-19.13V19.12a19.13 19.13 0 0 0-38.25 0V76.5A19.13 19.13 0 0 0 306 95.63zm184 53.16 40.18-40.18a18.94 18.94 0 1 0-26.8-26.8L463.22 122a18.94 18.94 0 1 0 26.8 26.8zM141.72 443.51l-40.19 40.18a18.94 18.94 0 1 0 26.8 26.8l40.18-40.19a18.94 18.94 0 1 0-26.8-26.8zM130.2 157.25a19.1 19.1 0 0 0 27.05 0 19.14 19.14 0 0 0 0-27.05l-40.57-40.58a19.1 19.1 0 0 0-27.04 0 19.1 19.1 0 0 0 0 27.04l40.56 40.59zM306 516.38a19.13 19.13 0 0 0-19.13 19.12v57.38a19.13 19.13 0 0 0 38.25 0V535.5A19.13 19.13 0 0 0 306 516.37zm175.8-61.63a19.1 19.1 0 0 0-27.05 0 19.1 19.1 0 0 0 0 27.05l40.57 40.56a19.12 19.12 0 1 0 27.04-27.04l-40.56-40.57zm111.07-167.88H535.5a19.13 19.13 0 0 0 0 38.25h57.38a19.13 19.13 0 0 0 0-38.25zM306 133.76c-95.13 0-172.24 77.11-172.24 172.24S210.87 478.24 306 478.24 478.24 401.13 478.24 306 401.13 133.76 306 133.76zm0 306.08c-73.92 0-133.84-59.92-133.84-133.84S232.08 172.16 306 172.16 439.84 232.08 439.84 306 379.92 439.84 306 439.84z"/></svg>